<?xml version="1.0" encoding="UTF-8"?>
<!DOCTYPE svg PUBLIC "-//W3C//DTD SVG 1.1//EN" "http://www.w3.org/Graphics/SVG/1.1/DTD/svg11.dtd">
<svg xmlns="http://www.w3.org/2000/svg" version="1.1" width="180px" height="58px" style="shape-rendering:geometricPrecision; text-rendering:geometricPrecision; image-rendering:optimizeQuality; fill-rule:evenodd; clip-rule:evenodd" xmlns:xlink="http://www.w3.org/1999/xlink">
<g><path style="opacity:0.968" fill="#be8a20" d="M 27.5,-0.5 C 30.8333,-0.5 34.1667,-0.5 37.5,-0.5C 37.5,0.166667 37.8333,0.5 38.5,0.5C 38.3433,1.87344 38.51,3.20677 39,4.5C 41.3155,3.63265 43.3155,4.29932 45,6.5C 46.016,5.36589 46.6827,5.69923 47,7.5C 47.3333,7.16667 47.6667,6.83333 48,6.5C 49.0437,7.62261 49.7104,8.95594 50,10.5C 50.3333,9.83333 50.6667,9.16667 51,8.5C 53.1718,9.50892 54.3385,11.1756 54.5,13.5C 52.8002,13.3739 51.3002,12.7073 50,11.5C 49.2352,11.5699 48.7352,11.9033 48.5,12.5C 36.9044,4.27054 25.5711,4.60388 14.5,13.5C 13.5041,13.4142 12.6708,13.7476 12,14.5C 10.3964,13.9323 9.72971,12.9323 10,11.5C 13.4724,8.97525 16.639,6.64191 19.5,4.5C 19.8333,5.16667 20.1667,5.83333 20.5,6.5C 21.562,4.97832 22.2287,3.31166 22.5,1.5C 24.1667,0.833333 25.8333,0.166667 27.5,-0.5 Z"/></g>
<g><path style="opacity:0.755" fill="#fefefe" d="M 65.5,4.5 C 71.8421,4.33379 78.1754,4.50046 84.5,5C 88.9534,7.07107 90.9534,10.5711 90.5,15.5C 90.9189,18.7474 89.9189,21.414 87.5,23.5C 95.4752,32.3687 95.4752,41.202 87.5,50C 80.2806,51.4286 72.9472,51.9286 65.5,51.5C 65.5,35.8333 65.5,20.1667 65.5,4.5 Z M 71.5,10.5 C 75.2198,10.5642 78.8865,11.0642 82.5,12C 84.0363,15.24 83.703,18.24 81.5,21C 78.2744,22.1989 74.941,22.6989 71.5,22.5C 71.5,18.5 71.5,14.5 71.5,10.5 Z M 71.5,29.5 C 75.8967,29.4246 80.23,29.9246 84.5,31C 87.3674,35.591 87.034,39.9244 83.5,44C 79.534,44.8279 75.534,45.3279 71.5,45.5C 71.5,40.1667 71.5,34.8333 71.5,29.5 Z"/></g>
<g><path style="opacity:0.803" fill="#fefefe" d="M 97.5,4.5 C 102.5,4.5 107.5,4.5 112.5,4.5C 112.5,6.5 112.5,8.5 112.5,10.5C 111.167,10.5 109.833,10.5 108.5,10.5C 108.5,22.1667 108.5,33.8333 108.5,45.5C 109.833,45.5 111.167,45.5 112.5,45.5C 112.5,47.5 112.5,49.5 112.5,51.5C 107.5,51.5 102.5,51.5 97.5,51.5C 97.5,49.5 97.5,47.5 97.5,45.5C 99.1667,45.5 100.833,45.5 102.5,45.5C 102.5,33.8333 102.5,22.1667 102.5,10.5C 100.833,10.5 99.1667,10.5 97.5,10.5C 97.5,8.5 97.5,6.5 97.5,4.5 Z"/></g>
<g><path style="opacity:0.733" fill="#fefefe" d="M 119.5,4.5 C 122.247,4.18665 124.914,4.51998 127.5,5.5C 130.626,12.7465 133.459,20.0798 136,27.5C 138.661,19.8437 141.161,12.177 143.5,4.5C 146.5,4.5 149.5,4.5 152.5,4.5C 152.5,20.1667 152.5,35.8333 152.5,51.5C 150.5,51.5 148.5,51.5 146.5,51.5C 146.667,39.8286 146.5,28.1619 146,16.5C 143.333,23.8333 140.667,31.1667 138,38.5C 136.301,39.4061 134.467,39.7394 132.5,39.5C 131.198,32.5605 129.032,25.8938 126,19.5C 125.5,30.1615 125.333,40.8281 125.5,51.5C 123.5,51.5 121.5,51.5 119.5,51.5C 119.5,35.8333 119.5,20.1667 119.5,4.5 Z"/></g>
<g><path style="opacity:0.797" fill="#fefefe" d="M 158.5,4.5 C 163.5,4.5 168.5,4.5 173.5,4.5C 173.5,6.5 173.5,8.5 173.5,10.5C 172.167,10.5 170.833,10.5 169.5,10.5C 169.5,22.1667 169.5,33.8333 169.5,45.5C 170.833,45.5 172.167,45.5 173.5,45.5C 173.5,47.5 173.5,49.5 173.5,51.5C 168.5,51.5 163.5,51.5 158.5,51.5C 158.5,49.5 158.5,47.5 158.5,45.5C 160.167,45.5 161.833,45.5 163.5,45.5C 163.5,33.8333 163.5,22.1667 163.5,10.5C 161.833,10.5 160.167,10.5 158.5,10.5C 158.5,8.5 158.5,6.5 158.5,4.5 Z"/></g>
<g><path style="opacity:1" fill="#1ab8e3" d="M 48.5,12.5 C 49.5,13.8333 50.5,15.1667 51.5,16.5C 46.9714,17.2735 42.3047,17.9401 37.5,18.5C 37.6567,17.1266 37.49,15.7932 37,14.5C 36.3292,15.2524 35.4959,15.5858 34.5,15.5C 33.4408,7.03994 31.7742,6.70661 29.5,14.5C 27.9519,14.8212 27.2852,15.8212 27.5,17.5C 24.9407,17.1984 22.6074,17.5318 20.5,18.5C 17.7628,18.5987 15.0961,18.2653 12.5,17.5C 13.6005,16.3951 14.2671,15.0618 14.5,13.5C 25.5711,4.60388 36.9044,4.27054 48.5,12.5 Z"/></g>
<g><path style="opacity:0.997" fill="#e3ad32" d="M 22.5,1.5 C 22.2287,3.31166 21.562,4.97832 20.5,6.5C 20.1667,5.83333 19.8333,5.16667 19.5,4.5C 16.639,6.64191 13.4724,8.97525 10,11.5C 9.72971,12.9323 10.3964,13.9323 12,14.5C 12.6708,13.7476 13.5041,13.4142 14.5,13.5C 14.2671,15.0618 13.6005,16.3951 12.5,17.5C 11.8333,17.5 11.5,17.8333 11.5,18.5C 10.8333,20.5 10.1667,22.5 9.5,24.5C 8.68052,27.3054 8.18052,30.3054 8,33.5C 7.35506,34.646 6.52173,35.646 5.5,36.5C 6.31277,37.8139 7.31277,38.9805 8.5,40C 9.19416,41.7023 9.19416,43.5357 8.5,45.5C 2.82237,38.188 0.989041,29.8547 3,20.5C 6.0801,10.5857 12.5801,4.2524 22.5,1.5 Z"/></g>
<g><path style="opacity:1" fill="#b3b7b8" d="M 34.5,15.5 C 32.5853,15.7845 30.9187,15.4511 29.5,14.5C 31.7742,6.70661 33.4408,7.03994 34.5,15.5 Z"/></g>
<g><path style="opacity:0.961" fill="#e7bb47" d="M 38.5,0.5 C 56.2965,4.81604 64.1298,16.1494 62,34.5C 55.7902,51.6922 43.6235,58.6922 25.5,55.5C 25.4701,54.5028 25.9701,53.8361 27,53.5C 35.3082,55.8581 42.8082,54.0248 49.5,48C 45.5027,48.2463 42.0027,49.7463 39,52.5C 37.2859,51.0745 35.9525,51.4078 35,53.5C 31.6827,52.2283 28.516,50.895 25.5,49.5C 29.1667,49.5 32.8333,49.5 36.5,49.5C 41.6074,48.4488 45.9408,46.1154 49.5,42.5C 52.2242,39.7183 53.8908,36.385 54.5,32.5C 55.7752,29.3962 55.7752,26.3962 54.5,23.5C 54.5674,22.0413 54.2341,20.7079 53.5,19.5C 53.4142,18.5041 53.7476,17.6708 54.5,17C 53.552,16.5172 52.552,16.3505 51.5,16.5C 50.5,15.1667 49.5,13.8333 48.5,12.5C 48.7352,11.9033 49.2352,11.5699 50,11.5C 51.3002,12.7073 52.8002,13.3739 54.5,13.5C 54.3385,11.1756 53.1718,9.50892 51,8.5C 50.6667,9.16667 50.3333,9.83333 50,10.5C 49.7104,8.95594 49.0437,7.62261 48,6.5C 47.6667,6.83333 47.3333,7.16667 47,7.5C 46.6827,5.69923 46.016,5.36589 45,6.5C 43.3155,4.29932 41.3155,3.63265 39,4.5C 38.51,3.20677 38.3433,1.87344 38.5,0.5 Z"/></g>
<g><path style="opacity:1" fill="#3c4244" d="M 29.5,14.5 C 30.9187,15.4511 32.5853,15.7845 34.5,15.5C 35.4959,15.5858 36.3292,15.2524 37,14.5C 37.49,15.7932 37.6567,17.1266 37.5,18.5C 35.6729,19.9319 34.0063,21.5986 32.5,23.5C 30.8333,22 29.1667,20.5 27.5,19C 25.1902,18.5034 22.8568,18.3367 20.5,18.5C 22.6074,17.5318 24.9407,17.1984 27.5,17.5C 27.2852,15.8212 27.9519,14.8212 29.5,14.5 Z"/></g>
<g><path style="opacity:1" fill="#614f3d" d="M 51.5,16.5 C 52.552,16.3505 53.552,16.5172 54.5,17C 53.7476,17.6708 53.4142,18.5041 53.5,19.5C 48.95,20.9835 44.2834,22.1502 39.5,23C 40.3805,23.7083 41.0472,24.5416 41.5,25.5C 41.1667,25.5 40.8333,25.5 40.5,25.5C 39.2101,24.9423 38.3768,23.9423 38,22.5C 36.9887,23.3366 35.8221,23.67 34.5,23.5C 34.5,25.1667 34.5,26.8333 34.5,28.5C 33.1667,28.8333 31.8333,29.1667 30.5,29.5C 29.8161,27.5512 28.6494,25.8845 27,24.5C 26.6174,25.056 26.1174,25.3893 25.5,25.5C 24.8333,25.5 24.1667,25.5 23.5,25.5C 24.4293,24.6851 25.4293,23.8518 26.5,23C 21.3109,21.9913 16.3109,20.4913 11.5,18.5C 11.5,17.8333 11.8333,17.5 12.5,17.5C 15.0961,18.2653 17.7628,18.5987 20.5,18.5C 22.8568,18.3367 25.1902,18.5034 27.5,19C 29.1667,20.5 30.8333,22 32.5,23.5C 34.0063,21.5986 35.6729,19.9319 37.5,18.5C 42.3047,17.9401 46.9714,17.2735 51.5,16.5 Z"/></g>
<g><path style="opacity:1" fill="#199ec5" d="M 53.5,19.5 C 54.2341,20.7079 54.5674,22.0413 54.5,23.5C 51.3157,25.4136 47.649,26.0803 43.5,25.5C 42.8333,25.5 42.1667,25.5 41.5,25.5C 41.0472,24.5416 40.3805,23.7083 39.5,23C 44.2834,22.1502 48.95,20.9835 53.5,19.5 Z"/></g>
<g><path style="opacity:1" fill="#2d7891" d="M 40.5,25.5 C 41.1667,26.5 41.8333,27.5 42.5,28.5C 40.8828,29.038 39.2161,29.3713 37.5,29.5C 36.209,29.7373 35.209,29.404 34.5,28.5C 34.5,26.8333 34.5,25.1667 34.5,23.5C 35.8221,23.67 36.9887,23.3366 38,22.5C 38.3768,23.9423 39.2101,24.9423 40.5,25.5 Z"/></g>
<g><path style="opacity:1" fill="#1d8cac" d="M 11.5,18.5 C 16.3109,20.4913 21.3109,21.9913 26.5,23C 25.4293,23.8518 24.4293,24.6851 23.5,25.5C 22.8333,25.8333 22.1667,26.1667 21.5,26.5C 19.3023,26.4088 18.9689,27.0755 20.5,28.5C 19.5,29.1667 18.5,29.8333 17.5,30.5C 14.8333,30.5 12.1667,30.5 9.5,30.5C 9.5,28.5 9.5,26.5 9.5,24.5C 10.1667,22.5 10.8333,20.5 11.5,18.5 Z"/></g>
<g><path style="opacity:1" fill="#e3c537" d="M 23.5,25.5 C 24.1667,25.5 24.8333,25.5 25.5,25.5C 24.6935,26.7281 23.6935,27.7281 22.5,28.5C 21.6618,28.1583 21.3284,27.4916 21.5,26.5C 22.1667,26.1667 22.8333,25.8333 23.5,25.5 Z"/></g>
<g><path style="opacity:1" fill="#30778f" d="M 30.5,29.5 C 27.5043,31.0759 24.8376,30.7426 22.5,28.5C 23.6935,27.7281 24.6935,26.7281 25.5,25.5C 26.1174,25.3893 26.6174,25.056 27,24.5C 28.6494,25.8845 29.8161,27.5512 30.5,29.5 Z"/></g>
<g><path style="opacity:1" fill="#d3b838" d="M 40.5,25.5 C 40.8333,25.5 41.1667,25.5 41.5,25.5C 42.1667,25.5 42.8333,25.5 43.5,25.5C 45.1827,26.8534 46.5161,28.5201 47.5,30.5C 45.6776,30.1692 44.0109,29.5025 42.5,28.5C 41.8333,27.5 41.1667,26.5 40.5,25.5 Z"/></g>
<g><path style="opacity:1" fill="#207c96" d="M 54.5,23.5 C 55.7752,26.3962 55.7752,29.3962 54.5,32.5C 51.7718,32.8294 49.4385,32.1628 47.5,30.5C 46.5161,28.5201 45.1827,26.8534 43.5,25.5C 47.649,26.0803 51.3157,25.4136 54.5,23.5 Z"/></g>
<g><path style="opacity:1" fill="#801f1d" d="M 21.5,26.5 C 21.3284,27.4916 21.6618,28.1583 22.5,28.5C 24.8376,30.7426 27.5043,31.0759 30.5,29.5C 31.8333,29.1667 33.1667,28.8333 34.5,28.5C 35.209,29.404 36.209,29.7373 37.5,29.5C 38.5981,30.397 38.5981,31.2303 37.5,32C 35.9656,32.923 34.299,33.423 32.5,33.5C 28.6781,32.9618 25.0114,31.9618 21.5,30.5C 21.1667,29.8333 20.8333,29.1667 20.5,28.5C 18.9689,27.0755 19.3023,26.4088 21.5,26.5 Z"/></g>
<g><path style="opacity:1" fill="#164350" d="M 42.5,28.5 C 44.0109,29.5025 45.6776,30.1692 47.5,30.5C 49.4385,32.1628 51.7718,32.8294 54.5,32.5C 53.8908,36.385 52.2242,39.7183 49.5,42.5C 48.2264,41.8106 48.2264,40.9772 49.5,40C 47.9238,39.5604 46.5904,38.727 45.5,37.5C 44.8165,37.8627 44.1499,38.1961 43.5,38.5C 40.1667,38.5 36.8333,38.5 33.5,38.5C 34.0065,37.1411 35.0065,36.1411 36.5,35.5C 33.8333,34.1667 31.1667,34.1667 28.5,35.5C 28.9569,36.2975 29.6236,36.6309 30.5,36.5C 27.3752,37.4794 24.0419,37.8128 20.5,37.5C 18.7121,38.3604 17.0455,39.3604 15.5,40.5C 15.1667,40.5 14.8333,40.5 14.5,40.5C 11.7989,37.7647 10.1322,34.4314 9.5,30.5C 12.1667,30.5 14.8333,30.5 17.5,30.5C 17.0472,31.4584 16.3805,32.2917 15.5,33C 15.8333,33.1667 16.1667,33.3333 16.5,33.5C 17.9397,32.0476 19.6064,31.0476 21.5,30.5C 25.0114,31.9618 28.6781,32.9618 32.5,33.5C 34.299,33.423 35.9656,32.923 37.5,32C 38.5981,31.2303 38.5981,30.397 37.5,29.5C 39.2161,29.3713 40.8828,29.038 42.5,28.5 Z"/></g>
<g><path style="opacity:1" fill="#81864c" d="M 20.5,28.5 C 20.8333,29.1667 21.1667,29.8333 21.5,30.5C 19.6064,31.0476 17.9397,32.0476 16.5,33.5C 16.1667,33.3333 15.8333,33.1667 15.5,33C 16.3805,32.2917 17.0472,31.4584 17.5,30.5C 18.5,29.8333 19.5,29.1667 20.5,28.5 Z"/></g>
<g><path style="opacity:1" fill="#081d21" d="M 30.5,36.5 C 31.1177,39.1107 31.451,41.7774 31.5,44.5C 29.4352,44.4828 27.4352,44.1495 25.5,43.5C 23.8437,41.5398 22.177,39.5398 20.5,37.5C 24.0419,37.8128 27.3752,37.4794 30.5,36.5 Z"/></g>
<g><path style="opacity:1" fill="#05181c" d="M 33.5,38.5 C 36.8333,38.5 40.1667,38.5 43.5,38.5C 41.4648,42.523 38.1315,44.523 33.5,44.5C 34.2751,42.6119 34.2751,40.6119 33.5,38.5 Z"/></g>
<g><path style="opacity:1" fill="#bd881b" d="M 9.5,24.5 C 9.5,26.5 9.5,28.5 9.5,30.5C 10.1322,34.4314 11.7989,37.7647 14.5,40.5C 15.1667,43.1667 16.8333,44.8333 19.5,45.5C 21.5,46.8333 23.5,48.1667 25.5,49.5C 28.516,50.895 31.6827,52.2283 35,53.5C 35.9525,51.4078 37.2859,51.0745 39,52.5C 42.0027,49.7463 45.5027,48.2463 49.5,48C 42.8082,54.0248 35.3082,55.8581 27,53.5C 25.9701,53.8361 25.4701,54.5028 25.5,55.5C 18.4187,54.4632 12.752,51.1299 8.5,45.5C 9.19416,43.5357 9.19416,41.7023 8.5,40C 7.31277,38.9805 6.31277,37.8139 5.5,36.5C 6.52173,35.646 7.35506,34.646 8,33.5C 8.18052,30.3054 8.68052,27.3054 9.5,24.5 Z"/></g>
<g><path style="opacity:1" fill="#6e6e6e" d="M 33.5,38.5 C 34.2751,40.6119 34.2751,42.6119 33.5,44.5C 32.8333,44.5 32.1667,44.5 31.5,44.5C 31.451,41.7774 31.1177,39.1107 30.5,36.5C 29.6236,36.6309 28.9569,36.2975 28.5,35.5C 31.1667,34.1667 33.8333,34.1667 36.5,35.5C 35.0065,36.1411 34.0065,37.1411 33.5,38.5 Z"/></g>
<g><path style="opacity:1" fill="#402c0b" d="M 14.5,40.5 C 14.8333,40.5 15.1667,40.5 15.5,40.5C 16.803,42.1423 18.1363,43.8089 19.5,45.5C 16.8333,44.8333 15.1667,43.1667 14.5,40.5 Z"/></g>
<g><path style="opacity:1" fill="#b19039" d="M 49.5,42.5 C 45.9408,46.1154 41.6074,48.4488 36.5,49.5C 33.6946,48.6805 30.6946,48.1805 27.5,48C 28.624,47.7508 29.624,47.2508 30.5,46.5C 28.9223,45.7022 27.2556,45.2022 25.5,45C 24.2617,44.31 24.2617,43.81 25.5,43.5C 27.4352,44.1495 29.4352,44.4828 31.5,44.5C 32.1667,44.5 32.8333,44.5 33.5,44.5C 38.1315,44.523 41.4648,42.523 43.5,38.5C 44.1499,38.1961 44.8165,37.8627 45.5,37.5C 46.5904,38.727 47.9238,39.5604 49.5,40C 48.2264,40.9772 48.2264,41.8106 49.5,42.5 Z"/></g>
<g><path style="opacity:1" fill="#8a6519" d="M 20.5,37.5 C 22.177,39.5398 23.8437,41.5398 25.5,43.5C 24.2617,43.81 24.2617,44.31 25.5,45C 27.2556,45.2022 28.9223,45.7022 30.5,46.5C 29.624,47.2508 28.624,47.7508 27.5,48C 30.6946,48.1805 33.6946,48.6805 36.5,49.5C 32.8333,49.5 29.1667,49.5 25.5,49.5C 23.5,48.1667 21.5,46.8333 19.5,45.5C 18.1363,43.8089 16.803,42.1423 15.5,40.5C 17.0455,39.3604 18.7121,38.3604 20.5,37.5 Z"/></g>
</svg>
