<?xml version="1.0" standalone="no"?>
<!DOCTYPE svg PUBLIC "-//W3C//DTD SVG 20010904//EN"
 "http://www.w3.org/TR/2001/REC-SVG-20010904/DTD/svg10.dtd">
<svg version="1.0" xmlns="http://www.w3.org/2000/svg"
 width="300.000000pt" height="290.000000pt" viewBox="0 0 300.000000 290.000000"
 preserveAspectRatio="xMidYMid meet">

<g transform="translate(0.000000,290.000000) scale(0.100000,-0.100000)"
fill="#000000" stroke="none">
<path d="M1431 2759 c6 -12 9 -43 7 -71 -5 -48 -5 -49 21 -46 22 3 25 7 23 31
-3 21 1 27 16 27 26 0 44 24 40 52 -3 21 -9 23 -61 26 -57 3 -58 3 -46 -19z
m77 -17 c-5 -27 -28 -26 -28 2 0 19 4 24 15 19 9 -3 15 -12 13 -21z"/>
<path d="M1590 2749 c-7 -17 -24 -46 -36 -65 -13 -19 -19 -34 -15 -34 5 0 17
-3 25 -6 12 -5 16 -1 14 17 -2 18 2 24 17 24 15 0 19 -6 18 -22 -2 -17 3 -23
16 -23 10 0 39 -3 65 -6 40 -6 46 -4 40 9 -3 9 -1 24 4 33 8 15 12 12 23 -19
9 -25 20 -38 38 -42 14 -3 34 -8 44 -11 12 -4 17 0 17 15 0 24 22 28 39 8 8
-10 7 -17 -1 -25 -8 -8 -4 -14 17 -22 15 -6 29 -9 30 -8 1 2 -2 36 -8 76 l-10
73 -53 -51 -52 -52 -18 27 c-14 22 -15 31 -6 46 26 41 9 61 -58 72 l-35 5 -1
-49 c-1 -54 -16 -81 -35 -62 -7 7 -20 35 -30 65 -9 29 -22 54 -27 56 -5 1 -15
-11 -22 -29z m186 -20 c8 -14 -11 -33 -25 -25 -11 7 -4 36 9 36 5 0 12 -5 16
-11z"/>
<path d="M1245 2760 c-53 -21 -64 -80 -21 -117 32 -27 47 -28 86 -8 52 27 52
93 0 120 -32 17 -37 17 -65 5z m51 -34 c19 -30 15 -65 -8 -80 -36 -22 -74 56
-43 88 22 22 32 20 51 -8z"/>
<path d="M1091 2721 c-30 -9 -57 -23 -59 -30 -3 -10 0 -12 12 -8 9 4 22 9 30
13 15 6 43 -77 31 -95 -7 -12 8 -14 43 -5 20 6 21 8 8 23 -8 9 -19 33 -24 55
-11 37 -10 38 14 33 18 -3 24 0 24 14 0 22 -8 22 -79 0z"/>
<path d="M968 2683 c-18 -4 -25 -23 -10 -23 14 0 45 -77 39 -94 -4 -9 -1 -16
6 -16 17 1 65 29 50 30 -17 0 -56 78 -49 96 5 14 -4 16 -36 7z"/>
<path d="M2008 2654 c-22 -11 -28 -22 -28 -48 0 -62 75 -100 113 -56 16 19 15
20 -14 35 -29 16 -30 16 -23 -10 5 -21 3 -25 -15 -25 -43 0 -39 72 5 92 23 11
29 9 44 -10 21 -26 30 -28 30 -6 0 8 -16 22 -35 30 -42 17 -43 17 -77 -2z"/>
<path d="M875 2638 c-47 -27 -58 -70 -27 -108 13 -16 29 -23 51 -22 37 1 84
28 78 45 -6 20 -24 18 -30 -3 -8 -32 -57 -23 -77 12 -20 36 -4 64 35 61 17 -1
25 2 22 10 -5 17 -28 19 -52 5z"/>
<path d="M2163 2604 c3 -4 -5 -26 -19 -50 -25 -42 -25 -46 -10 -69 9 -14 28
-28 43 -31 22 -6 31 -2 49 22 13 16 31 37 40 48 11 13 13 21 5 29 -6 6 -12 9
-13 6 -2 -2 -12 -22 -23 -44 -15 -30 -27 -41 -48 -43 -17 -2 -29 2 -33 11 -7
18 34 87 52 87 19 0 18 10 -3 26 -18 13 -52 20 -40 8z"/>
<path d="M723 2550 c-32 -19 -41 -35 -25 -42 14 -6 52 -66 52 -82 0 -15 2 -15
24 -1 l25 16 -21 21 c-26 26 -17 33 20 14 29 -15 62 -13 62 4 0 4 -13 13 -30
20 -16 7 -30 20 -30 29 0 19 -19 41 -34 41 -6 0 -26 -9 -43 -20z m47 -23 c0
-21 -12 -28 -27 -16 -19 16 -16 29 7 29 11 0 20 -6 20 -13z"/>
<path d="M1287 2534 c-190 -34 -367 -117 -530 -246 -78 -62 -188 -184 -226
-250 -19 -33 -30 -34 -81 -8 -22 11 -42 20 -45 20 -14 0 -2 -31 26 -70 29 -40
31 -47 20 -74 -112 -285 -128 -511 -55 -763 110 -381 444 -689 837 -774 653
-139 1263 248 1398 886 7 33 13 121 13 195 -1 147 -18 246 -60 359 -51 133
-50 123 -15 171 28 39 40 70 25 70 -3 0 -28 -10 -55 -21 -27 -12 -51 -20 -52
-18 -2 2 -24 33 -49 69 -56 80 -192 212 -273 267 -203 136 -427 204 -673 202
-70 0 -162 -7 -205 -15z m441 -38 c219 -48 406 -145 560 -289 53 -50 169 -194
161 -201 -2 -2 -26 -9 -54 -16 -79 -19 -245 -24 -358 -10 -111 13 -204 3 -227
-26 -7 -7 -20 -14 -30 -14 -10 0 -24 -10 -33 -22 -14 -21 -14 -20 -4 18 7 28
15 40 24 37 7 -3 13 2 13 11 0 9 -8 16 -19 16 -27 0 -31 20 -9 55 29 48 21 49
-31 4 -40 -34 -48 -46 -40 -60 15 -29 10 -68 -12 -90 -18 -18 -29 -21 -70 -16
-33 4 -49 2 -49 -5 0 -6 -3 -9 -6 -5 -11 11 17 74 45 101 l29 28 7 -31 c9 -41
-1 -54 -36 -47 -21 4 -29 2 -29 -8 0 -29 69 -36 92 -8 32 37 26 92 -10 92 -9
0 3 11 28 24 55 28 97 86 106 146 l6 45 -42 -48 c-35 -39 -85 -77 -103 -77 -2
0 -7 26 -10 58 -3 36 -24 103 -57 182 -52 127 -70 157 -88 146 -16 -10 -126
-289 -132 -336 l-6 -45 -52 53 c-29 28 -54 52 -57 52 -19 0 11 -94 42 -132
l27 -33 -32 29 c-36 33 -44 17 -13 -23 23 -30 17 -61 -10 -54 -13 4 -19 0 -19
-12 0 -10 5 -15 14 -12 9 4 17 -8 25 -35 7 -22 25 -52 39 -66 24 -22 24 -23 4
-13 -12 7 -34 29 -48 50 -22 34 -30 39 -66 39 -43 1 -68 12 -27 12 20 1 21 2
7 10 -33 20 -161 22 -272 6 -65 -10 -133 -14 -170 -11 -103 10 -186 27 -186
38 0 19 83 120 156 193 167 163 394 278 620 314 84 13 316 5 402 -14z m-170
-170 c41 -97 62 -158 62 -185 l0 -40 -124 -3 -124 -3 -6 42 c-4 33 1 57 23
110 16 37 43 103 61 146 17 42 35 77 39 77 4 0 36 -65 69 -144z m-125 -354 c9
-10 23 -34 31 -54 13 -31 13 -37 1 -42 -10 -3 -12 0 -8 11 5 13 2 15 -17 10
-17 -4 -20 -3 -11 6 18 18 13 25 -21 23 -32 -1 -33 0 -31 36 4 63 -40 57 -50
-7 l-4 -30 -1 30 c-1 17 3 37 8 45 6 10 4 20 -7 32 -10 11 4 7 39 -12 30 -16
62 -38 71 -48z m1137 44 c-38 -35 -234 -77 -353 -75 -81 2 -80 2 33 10 106 7
264 43 309 69 23 14 27 12 11 -4z m-2115 -14 c-3 -3 -11 0 -18 7 -9 10 -8 11
6 5 10 -3 15 -9 12 -12z m102 -28 c-3 -3 -12 -4 -19 -1 -8 3 -5 6 6 6 11 1 17
-2 13 -5z m198 -25 l110 -7 -120 3 c-66 2 -133 8 -150 14 -28 10 -27 10 10 4
22 -3 90 -10 150 -14z m348 14 c-24 -2 -62 -2 -85 0 -24 2 -5 4 42 4 47 0 66
-2 43 -4z m885 0 c-21 -2 -57 -2 -80 0 -24 2 -7 4 37 4 44 0 63 -2 43 -4z
m-141 -9 c-3 -3 -12 -4 -19 -1 -8 3 -5 6 6 6 11 1 17 -2 13 -5z m-1224 -129
c32 -15 84 -28 123 -32 46 -4 75 -12 88 -25 13 -11 35 -18 61 -18 23 0 56 -7
74 -16 18 -9 44 -14 59 -11 16 3 35 -1 48 -12 20 -16 20 -18 6 -27 -10 -5
-155 -8 -343 -6 l-327 3 13 47 c14 52 36 113 55 154 l13 27 38 -29 c20 -17 62
-42 92 -55z m1936 -51 c18 -52 33 -118 34 -147 l2 -52 -283 2 -283 1 37 -46
c21 -26 41 -51 44 -55 4 -5 5 3 3 17 -3 14 -3 26 0 26 3 0 74 -87 158 -192
l153 -193 -126 118 c-120 112 -127 117 -130 91 -3 -26 -7 -22 -78 58 -73 84
-75 85 -80 57 -5 -30 -3 -33 -183 212 l-28 38 56 -6 c44 -5 59 -2 74 11 12 11
27 15 43 11 14 -4 42 0 63 9 21 9 54 16 74 16 20 0 50 9 66 20 21 14 47 20 87
20 72 0 160 32 207 76 45 41 47 39 90 -92z m-1176 69 c-7 -2 -19 -2 -25 0 -7
3 -2 5 12 5 14 0 19 -2 13 -5z m-222 -283 c-84 -113 -96 -126 -99 -104 l-4 26
-33 -32 -33 -32 -32 23 c-17 13 -26 25 -21 27 6 2 11 13 12 25 0 20 1 20 8 3
6 -16 16 -7 60 53 29 39 57 71 62 71 5 0 9 -14 9 -32 l0 -31 75 72 c41 40 79
70 84 67 5 -3 -34 -64 -88 -136z m196 118 c22 -24 75 -119 70 -124 -2 -2 -20
5 -41 16 -25 12 -45 16 -59 11 -26 -9 -59 -3 -52 9 3 5 12 7 20 3 11 -4 15 2
15 21 0 18 -5 26 -17 26 -13 0 -14 3 -5 12 10 10 17 10 32 0 26 -16 30 -15 30
8 0 10 -8 24 -17 29 -10 6 -13 11 -7 11 6 0 20 -10 31 -22z m308 8 c-12 -9
-16 -19 -11 -31 5 -14 9 -16 18 -7 17 17 45 15 52 -4 5 -13 4 -14 -7 -6 -8 7
-17 9 -20 5 -11 -10 -8 -55 3 -48 6 3 15 3 22 -1 20 -13 -24 -22 -53 -11 -21
8 -33 7 -54 -7 -15 -10 -29 -15 -31 -13 -15 15 64 137 89 137 6 0 2 -6 -8 -14z
m-181 -222 c9 -34 22 -30 52 16 31 47 44 44 44 -11 l0 -39 -50 0 c-27 0 -50
-4 -50 -10 0 -5 -16 -10 -35 -10 -34 0 -35 1 -35 41 0 51 25 77 52 53 9 -9 19
-26 22 -40z m-589 6 c3 -5 1 -10 -4 -10 -6 0 -11 5 -11 10 0 6 2 10 4 10 3 0
8 -4 11 -10z m2 -57 c41 -53 46 -63 33 -78 -19 -23 -30 -18 -30 12 0 25 -11
17 -113 -85 -62 -61 -116 -112 -120 -112 -4 0 38 57 94 127 55 69 103 132 106
140 7 17 13 17 30 -4z m787 -325 c5 -9 8 -19 6 -21 -3 -3 -87 -7 -188 -9 -192
-6 -204 -3 -188 37 5 13 32 15 182 13 154 -3 178 -5 188 -20z m-189 -68 c-28
-12 -55 -12 -55 0 0 6 17 10 38 9 30 0 33 -2 17 -9z m56 -18 c-5 -10 -27 -24
-49 -30 -50 -15 -52 -15 -52 3 0 8 17 19 43 25 23 6 47 13 52 15 6 2 11 4 13
4 1 1 -2 -7 -7 -17z m-568 -174 c46 -42 51 -50 40 -67 -11 -17 -9 -23 15 -39
111 -79 253 -122 423 -129 188 -8 342 30 482 118 45 28 48 32 34 47 -15 16 -8
25 83 118 100 101 110 105 110 46 0 -69 5 -72 87 -65 l75 6 -48 -46 c-47 -44
-48 -46 -31 -64 9 -11 17 -24 17 -30 0 -13 -96 -97 -160 -140 -118 -80 -281
-142 -428 -163 -133 -20 -366 -8 -480 24 -168 47 -331 138 -431 240 -44 45
-44 46 -26 66 19 21 19 22 -30 66 l-50 45 78 -5 77 -6 0 28 c0 15 5 44 10 64
l11 38 45 -53 c25 -28 69 -73 97 -99z m567 119 c0 -7 -23 -20 -51 -29 -46 -15
-50 -15 -47 -1 2 9 19 22 38 29 46 16 60 17 60 1z m0 -51 c0 -13 -25 -26 -78
-41 -19 -6 -23 -4 -20 11 2 11 19 23 43 30 53 16 55 16 55 0z m0 -50 c0 -7
-19 -21 -43 -30 -52 -20 -57 -20 -57 -2 0 8 19 21 43 29 54 20 57 20 57 3z
m-10 -56 c-8 -6 -26 -9 -40 -9 -22 0 -21 2 10 13 37 14 54 11 30 -4z m13 -39
c55 -21 32 -88 -36 -105 -43 -11 -83 10 -93 50 -13 52 57 82 129 55z"/>
<path d="M856 751 c-4 -5 -3 -16 0 -25 7 -17 -11 -22 -21 -6 -4 6 -11 8 -16 5
-16 -11 -10 -25 16 -35 14 -5 25 -14 25 -20 0 -5 13 -7 31 -3 l31 6 -17 -27
c-15 -22 -15 -26 -2 -26 15 0 77 64 77 79 0 15 -29 21 -56 11 -33 -13 -34 -13
-34 4 0 9 7 12 20 9 26 -7 26 13 1 27 -24 12 -48 13 -55 1z"/>
<path d="M2077 744 c-8 -8 33 -84 45 -84 4 0 8 11 8 25 0 22 2 24 26 14 40
-15 39 -5 -4 25 -38 26 -62 32 -75 20z"/>
<path d="M2060 680 c24 -34 39 -45 47 -36 7 7 -46 66 -60 66 -4 0 1 -13 13
-30z"/>
<path d="M2007 683 c-4 -3 -7 -16 -8 -27 0 -12 -3 -15 -6 -8 -9 23 -25 12 -19
-14 7 -25 6 -25 -16 -10 -12 9 -26 16 -30 16 -17 0 -7 -48 14 -66 21 -19 21
-19 15 4 -4 19 -2 22 11 17 49 -20 53 -19 42 11 -9 23 -9 27 1 17 7 -7 21 -13
30 -13 21 0 43 26 34 40 -5 7 -11 5 -20 -7 -11 -15 -16 -16 -27 -5 -10 10 -10
16 0 32 10 16 10 20 -1 20 -8 0 -17 -3 -20 -7z"/>
<path d="M961 654 c-41 -34 -39 -52 5 -60 31 -6 40 -3 55 17 24 31 24 46 0 59
-26 13 -25 14 -60 -16z m34 -34 c3 -5 2 -10 -4 -10 -5 0 -13 5 -16 10 -3 6 -2
10 4 10 5 0 13 -4 16 -10z"/>
<path d="M1030 605 c-42 -43 -32 -59 12 -19 18 16 24 19 14 7 -29 -35 -14 -57
33 -50 27 3 38 1 35 -7 -2 -6 10 -19 26 -28 l31 -17 19 32 c32 52 20 83 -13
35 -18 -28 -33 -18 -18 11 11 20 -2 40 -14 21 -4 -6 -15 0 -27 15 -11 15 -27
24 -34 21 -8 -3 -14 -1 -14 4 0 18 -16 10 -50 -25z m87 -22 c4 -11 -32 -25
-41 -15 -8 8 15 33 27 29 6 -2 12 -8 14 -14z"/>
<path d="M1863 607 c-17 -10 -20 -16 -11 -30 9 -18 9 -18 -14 -3 -20 13 -29
14 -56 4 -25 -10 -32 -18 -32 -40 0 -38 -17 -44 -25 -8 -4 17 -11 27 -17 24
-5 -3 -42 -8 -81 -11 -40 -2 -72 -5 -73 -6 -7 -8 14 -81 24 -85 6 -2 12 2 12
8 0 7 11 25 25 42 l25 30 0 -31 c0 -17 5 -31 10 -31 6 0 10 5 10 12 0 6 7 4
18 -5 26 -24 50 -23 29 1 -17 19 -23 42 -11 42 4 0 12 -8 19 -17 13 -18 75
-28 75 -12 0 5 9 9 19 9 11 0 29 12 40 26 15 20 21 22 21 10 0 -22 13 -20 41
5 l24 20 -30 -6 -29 -6 19 22 20 22 -25 -8 c-25 -8 -25 -8 -6 14 21 23 13 27
-21 8z m-30 -43 c9 -10 -4 -34 -19 -34 -8 0 -14 9 -14 20 0 19 19 27 33 14z
m-153 -34 c0 -5 -4 -10 -10 -10 -5 0 -10 5 -10 10 0 6 5 10 10 10 6 0 10 -4
10 -10z"/>
<path d="M1217 535 c-21 -44 -21 -49 0 -41 11 5 23 -1 34 -16 15 -19 19 -20
34 -8 22 18 48 70 40 78 -9 9 -45 -36 -45 -56 0 -12 -3 -13 -12 -4 -9 9 -7 16
7 32 14 16 15 22 5 35 -21 25 -45 17 -63 -20z"/>
<path d="M1331 515 c-26 -39 -24 -52 7 -36 29 16 32 14 32 -15 0 -32 16 -23
23 14 15 73 -22 95 -62 37z"/>
<path d="M1456 495 c4 -27 8 -52 10 -54 1 -2 9 13 17 32 8 19 20 38 26 41 6 4
11 12 11 18 0 6 -9 3 -20 -7 -20 -18 -21 -18 -35 1 -14 17 -15 15 -9 -31z"/>
<path d="M1483 733 c-19 -7 -16 -40 4 -52 21 -11 53 3 53 24 0 12 -31 37 -42
34 -2 0 -9 -3 -15 -6z"/>
<path d="M2285 2470 c-27 -16 -53 -26 -57 -24 -14 9 -8 -13 7 -26 12 -10 15
-9 15 4 0 12 7 16 22 14 28 -4 38 -38 11 -38 -16 -1 -15 -3 6 -21 13 -11 26
-18 28 -16 4 5 33 114 33 127 0 15 -11 12 -65 -20z m25 -16 c0 -8 -5 -12 -10
-9 -6 4 -8 11 -5 16 9 14 15 11 15 -7z"/>
<path d="M590 2450 c-29 -25 -39 -40 -29 -40 21 0 82 -68 74 -81 -13 -20 12
-7 54 29 31 26 42 43 36 52 -6 9 -12 6 -22 -14 -16 -31 -55 -33 -61 -3 -3 13
3 17 24 17 27 0 27 0 8 21 l-18 20 -8 -21 c-9 -25 -41 -23 -46 3 -3 12 5 19
28 23 17 4 29 11 27 17 -7 21 -23 16 -67 -23z"/>
<path d="M2407 2433 c-4 -3 -7 -21 -7 -39 0 -32 -21 -64 -42 -64 -6 0 -3 -9 7
-20 18 -20 41 -28 30 -11 -9 16 25 41 66 47 38 6 49 17 30 29 -5 3 -12 1 -16
-5 -3 -5 -15 -10 -26 -10 -21 0 -27 36 -6 43 9 3 9 7 -2 20 -14 18 -24 21 -34
10z"/>
<path d="M504 2369 c-11 -12 -13 -19 -5 -19 6 0 34 -21 62 -47 34 -32 46 -50
39 -57 -14 -14 -12 -26 5 -26 8 0 17 11 21 25 5 22 -3 35 -49 84 -54 57 -57
58 -73 40z"/>
<path d="M418 2278 l-34 -42 40 -21 c23 -12 46 -31 52 -44 11 -21 12 -20 49
24 35 43 41 75 14 75 -6 0 -9 -6 -6 -14 3 -7 -1 -23 -9 -35 -12 -17 -19 -19
-34 -11 -22 12 -16 40 7 40 13 0 13 3 3 15 -13 15 -35 21 -26 7 9 -15 -12 -35
-29 -28 -22 8 -15 38 13 52 12 6 19 14 15 17 -12 13 -20 7 -55 -35z"/>
<path d="M2470 2300 c-44 -44 -8 -120 57 -120 62 0 87 80 37 119 -34 26 -68
27 -94 1z m95 -39 c0 -31 -45 -66 -74 -56 -47 15 -5 89 47 83 21 -2 27 -8 27
-27z"/>
<path d="M250 1049 c-25 -9 -50 -14 -57 -12 -17 7 -16 -2 3 -43 12 -24 23 -34
40 -34 12 0 26 5 29 10 3 6 15 10 26 10 26 0 33 21 17 57 l-13 29 -45 -17z
m48 -31 c-6 -18 -28 -21 -28 -4 0 9 7 16 16 16 9 0 14 -5 12 -12z m-48 -12 c0
-21 -20 -30 -33 -17 -9 9 -8 14 3 21 21 14 30 12 30 -4z"/>
<path d="M2696 1038 c-23 -33 -20 -58 7 -58 12 0 35 -7 51 -15 24 -13 31 -13
38 -3 13 22 9 28 -19 28 -32 0 -20 17 16 22 14 1 27 9 29 17 4 11 -3 13 -31 8
-25 -4 -37 -2 -41 9 -8 21 -33 17 -50 -8z m39 -19 c10 -15 -1 -23 -20 -15 -9
3 -13 10 -10 16 8 13 22 13 30 -1z"/>
<path d="M223 928 c2 -7 15 -13 28 -13 15 0 24 -6 24 -15 0 -8 -6 -14 -12 -12
-14 2 -18 -30 -6 -42 7 -7 93 72 93 86 0 4 -30 8 -66 8 -48 0 -65 -3 -61 -12z"/>
<path d="M2706 930 c-58 -4 -67 -7 -54 -18 9 -7 24 -10 34 -6 12 4 15 3 7 -3
-8 -6 -5 -16 12 -36 27 -31 35 -34 35 -12 0 8 -7 15 -15 15 -19 0 -19 14 -1
29 10 9 16 9 21 1 5 -8 12 -4 22 10 8 12 13 22 12 23 -2 1 -35 0 -73 -3z"/>
<path d="M356 881 c-3 -5 1 -11 9 -15 26 -10 16 -23 -30 -43 -48 -19 -49 -21
-36 -41 6 -11 16 -8 46 12 43 30 55 32 55 11 0 -8 5 -15 10 -15 17 0 11 24
-15 63 -27 40 -31 42 -39 28z"/>
<path d="M2603 849 c-13 -23 -20 -46 -16 -52 3 -6 10 -1 14 12 8 19 12 20 31
10 13 -6 32 -20 44 -30 20 -19 21 -19 31 4 9 18 8 24 -2 24 -26 0 -75 26 -75
39 0 8 5 14 11 14 5 0 7 5 4 10 -11 17 -19 11 -42 -31z"/>
<path d="M2556 774 c-8 -21 -8 -24 6 -24 6 0 27 -12 45 -26 27 -21 37 -24 46
-14 9 10 9 14 0 17 -6 2 -30 17 -51 33 -33 24 -41 26 -46 14z"/>
<path d="M388 755 c-26 -7 -49 -10 -52 -7 -4 3 -6 -2 -6 -12 0 -12 6 -15 24
-10 29 7 44 -13 22 -29 -14 -11 -11 -19 30 -70 43 -55 63 -66 72 -39 2 7 -6
12 -17 12 -41 0 -15 48 37 67 20 8 21 11 8 28 -13 18 -15 18 -46 -13 -55 -56
-83 -32 -36 31 47 64 46 65 -36 42z"/>
<path d="M2490 690 c-8 -16 -8 -20 4 -20 9 0 31 -14 50 -30 l34 -30 25 32 c14
18 23 36 20 42 -4 5 -10 0 -14 -11 -13 -36 -28 -36 -65 1 -20 20 -38 36 -40
36 -2 0 -8 -9 -14 -20z"/>
<path d="M2452 648 c-16 -16 -15 -28 2 -28 8 0 28 -16 44 -34 26 -30 32 -33
43 -20 10 12 8 18 -12 32 -13 9 -33 27 -45 39 -16 17 -23 20 -32 11z"/>
<path d="M537 620 c-3 -11 -19 -28 -36 -37 -17 -10 -31 -22 -31 -26 0 -16 60
-68 70 -62 15 9 12 25 -4 25 -28 0 -28 22 -1 50 15 16 31 29 34 28 20 -2 22 4
6 22 -23 25 -31 25 -38 0z"/>
<path d="M2414 595 c-4 -9 -1 -28 5 -42 14 -31 9 -38 -17 -24 -23 12 -62 15
-62 5 0 -14 80 -92 85 -84 4 6 -6 21 -22 35 l-28 26 39 -16 c21 -8 40 -15 42
-15 3 0 -3 16 -11 37 -19 45 -14 52 13 18 13 -16 26 -23 36 -19 20 8 21 24 2
24 -8 0 -28 16 -45 35 -25 29 -32 33 -37 20z"/>
<path d="M676 553 c-4 -4 -23 -8 -43 -9 -39 -1 -73 -31 -73 -64 0 -26 33 -50
68 -50 39 0 67 37 58 74 -3 14 -2 28 4 31 12 7 13 25 2 25 -5 0 -12 -3 -16 -7z
m-16 -50 c0 -23 -29 -53 -52 -53 -27 0 -22 35 8 59 28 22 44 20 44 -6z"/>
<path d="M710 471 c0 -10 -14 -34 -31 -52 -23 -24 -27 -34 -17 -40 17 -11 31
-11 24 0 -3 5 3 20 13 32 l19 24 8 -53 c3 -29 10 -54 14 -57 4 -2 22 17 41 43
42 59 44 62 26 62 -7 0 -19 -12 -25 -26 -16 -34 -32 -21 -32 26 0 29 -5 42
-20 50 -17 9 -20 8 -20 -9z"/>
<path d="M2250 462 c0 -5 6 -29 13 -53 8 -24 11 -51 9 -59 -4 -13 -3 -13 10
-2 17 13 13 51 -6 64 -6 4 -7 10 -3 15 5 4 11 3 15 -2 4 -6 16 -18 28 -28 18
-15 23 -15 33 -4 9 11 1 20 -40 46 -54 34 -59 35 -59 23z"/>
<path d="M2178 419 c-15 -8 -14 -12 7 -33 13 -13 27 -36 31 -50 3 -14 10 -26
14 -26 13 0 32 28 21 32 -5 1 -20 22 -33 45 -19 33 -27 39 -40 32z"/>
<path d="M847 345 c-10 -24 -26 -45 -35 -47 -26 -6 40 -38 77 -38 31 0 61 30
61 60 0 19 -37 55 -65 64 -16 5 -23 -2 -38 -39z m69 -10 c7 -29 -10 -55 -37
-55 -23 0 -24 12 -4 50 19 37 33 38 41 5z"/>
<path d="M2100 370 c-52 -52 14 -125 81 -90 10 6 19 17 19 25 0 21 -9 19 -31
-7 l-19 -23 -25 29 c-32 35 -29 60 8 64 15 2 25 8 22 13 -10 15 -34 10 -55
-11z"/>
<path d="M2033 343 c-8 -3 -5 -15 9 -39 22 -37 17 -41 -22 -19 -14 8 -40 14
-57 15 -33 0 -33 0 -13 -20 11 -11 22 -32 26 -47 3 -16 6 -31 7 -35 1 -4 9 -3
17 2 12 8 12 11 -3 28 -15 17 -23 42 -13 42 2 0 26 -9 52 -20 26 -11 49 -19
51 -16 3 2 -3 19 -13 38 -9 18 -20 42 -23 54 -3 11 -11 19 -18 17z"/>
<path d="M970 315 c0 -29 -20 -75 -32 -75 -23 0 -2 -19 38 -35 39 -15 48 -15
55 -4 14 22 11 26 -21 21 -22 -3 -30 0 -30 11 0 20 22 35 28 19 2 -7 8 -10 13
-6 14 8 11 24 -6 24 -8 0 -15 6 -15 14 0 25 18 27 39 4 12 -12 21 -16 21 -10
0 7 0 15 1 19 0 3 -20 14 -45 24 l-46 17 0 -23z"/>
<path d="M1860 277 c-14 -6 -26 -12 -28 -13 -2 -1 7 -18 19 -38 11 -20 18 -43
15 -52 -5 -13 -1 -14 27 -9 17 4 40 11 50 17 18 9 23 28 7 28 -5 0 -10 -4 -10
-10 0 -5 -11 -10 -25 -10 -16 0 -25 6 -25 15 0 8 9 15 20 15 13 0 18 5 14 15
-5 12 -10 13 -20 4 -15 -13 -34 -4 -34 17 0 13 18 19 49 15 7 -2 10 2 6 8 -8
14 -33 13 -65 -2z"/>
<path d="M1114 238 c-6 -24 -13 -50 -15 -58 -2 -9 4 -16 18 -18 17 -2 21 1 17
11 -7 18 21 87 36 87 6 0 13 -7 16 -15 8 -19 -15 -85 -29 -85 -15 0 14 -20 30
-20 6 0 9 8 7 18 -3 9 -1 28 4 41 8 24 10 22 37 -27 27 -50 45 -59 45 -23 0
10 5 32 10 48 9 25 15 29 35 25 20 -3 25 -10 25 -34 0 -16 -5 -38 -10 -49 -9
-16 -7 -19 15 -19 16 0 24 4 20 11 -4 6 -4 26 0 46 5 28 10 34 26 30 10 -3 19
-1 19 5 0 5 5 6 11 2 7 -4 9 -25 7 -56 l-5 -49 45 3 c25 2 47 9 50 15 2 9 -5
11 -26 7 -32 -7 -46 4 -32 26 7 11 11 11 24 1 14 -12 16 -11 16 6 0 16 -5 19
-25 15 -18 -3 -25 0 -25 12 0 22 27 31 45 16 9 -7 18 -10 22 -6 16 16 -20 24
-129 30 l-118 7 0 -29 c0 -45 -11 -45 -40 2 -25 39 -67 66 -104 66 -6 0 -16
-19 -22 -42z"/>
<path d="M1742 237 c-26 -28 -27 -45 -6 -75 27 -39 94 -27 94 18 0 23 -3 27
-20 23 -16 -4 -18 -9 -9 -19 11 -13 5 -34 -11 -34 -5 0 -16 7 -24 16 -33 33
-6 103 29 74 12 -10 15 -10 15 4 0 24 -43 20 -68 -7z"/>
<path d="M1656 223 c4 -10 9 -37 12 -60 3 -35 8 -43 24 -43 15 0 18 4 12 18
-4 9 -9 36 -12 60 -3 34 -8 42 -24 42 -15 0 -18 -4 -12 -17z"/>
<path d="M1552 194 c5 -20 7 -47 4 -60 -5 -19 -2 -24 13 -24 43 0 81 13 81 28
0 13 -3 13 -12 4 -22 -22 -46 -14 -53 18 -4 16 -4 39 0 50 5 16 2 20 -19 20
-23 0 -24 -2 -14 -36z"/>
</g>
</svg>
