<?xml version="1.0" encoding="UTF-8"?>
<!DOCTYPE svg PUBLIC "-//W3C//DTD SVG 1.1//EN" "http://www.w3.org/Graphics/SVG/1.1/DTD/svg11.dtd">
<svg xmlns="http://www.w3.org/2000/svg" version="1.1" width="300px" height="290px" style="shape-rendering:geometricPrecision; text-rendering:geometricPrecision; image-rendering:optimizeQuality; fill-rule:evenodd; clip-rule:evenodd" xmlns:xlink="http://www.w3.org/1999/xlink">
<g><path style="opacity:1" fill="#c38916" d="M 177.5,13.5 C 175.167,13.5 172.833,13.5 170.5,13.5C 170.85,18.0309 170.183,22.3642 168.5,26.5C 167.167,26.5 165.833,26.5 164.5,26.5C 166.077,29.4824 165.744,32.1491 163.5,34.5C 139.321,32.803 116.321,37.1363 94.5,47.5C 94.5,44.5 94.5,41.5 94.5,38.5C 93.5,38.5 92.5,38.5 91.5,38.5C 90.8333,37.8333 90.1667,37.1667 89.5,36.5C 90.5,36.5 91.5,36.5 92.5,36.5C 94.7248,37.3321 96.0581,36.3321 96.5,33.5C 97.2216,33.9175 97.7216,34.5842 98,35.5C 98.2784,34.5842 98.7784,33.9175 99.5,33.5C 99.4346,33.9382 99.6012,34.2716 100,34.5C 101.419,33.5399 102.919,32.7065 104.5,32C 101.07,28.9706 99.4038,25.1372 99.5,20.5C 100.5,20.5 101.5,20.5 102.5,20.5C 102.5,17.1667 102.5,13.8333 102.5,10.5C 123.807,4.91274 145.474,3.07941 167.5,5C 170.557,5.25646 173.557,5.75646 176.5,6.5C 177.474,8.74269 177.808,11.076 177.5,13.5 Z"/></g>
<g><path style="opacity:1" fill="#dda82d" d="M 239.5,32.5 C 237.11,34.2666 235.443,36.5999 234.5,39.5C 232.566,40.1103 230.899,41.1103 229.5,42.5C 226.738,43.3795 224.071,44.5462 221.5,46C 223.151,47.6297 224.817,47.4631 226.5,45.5C 227.584,45.685 228.584,46.0183 229.5,46.5C 229.52,48.143 228.853,49.4763 227.5,50.5C 228.76,51.3816 229.926,52.3816 231,53.5C 231.198,51.6183 231.698,49.9516 232.5,48.5C 232.616,52.7018 231.783,56.7018 230,60.5C 228.644,61.3802 227.144,61.7135 225.5,61.5C 207.048,47.4588 186.381,38.4588 163.5,34.5C 165.744,32.1491 166.077,29.4824 164.5,26.5C 165.833,26.5 167.167,26.5 168.5,26.5C 170.199,26.6602 171.866,26.4935 173.5,26C 172.24,24.1862 172.24,22.3529 173.5,20.5C 175.422,22.0031 176.588,24.0031 177,26.5C 179.333,27.877 181.833,28.877 184.5,29.5C 185.429,28.3112 185.762,26.9778 185.5,25.5C 190.303,25.0901 191.303,26.5901 188.5,30C 190.388,31.6995 192.388,32.1995 194.5,31.5C 192.862,27.0196 192.029,22.3529 192,17.5C 188.929,20.9102 185.596,23.9102 182,26.5C 179.599,25.7311 178.099,24.0644 177.5,21.5C 178.711,20.1255 179.711,18.6255 180.5,17C 179.456,15.8261 178.456,14.6594 177.5,13.5C 177.808,11.076 177.474,8.74269 176.5,6.5C 173.557,5.75646 170.557,5.25646 167.5,5C 145.474,3.07941 123.807,4.91274 102.5,10.5C 146.829,-3.26553 189.162,1.56781 229.5,25C 233.08,27.2774 236.414,29.7774 239.5,32.5 Z"/></g>
<g><path style="opacity:1" fill="#0d0602" d="M 142.5,11.5 C 145.518,11.3354 148.518,11.502 151.5,12C 154.5,16 153.5,18 148.5,18C 151.487,14.7925 150.82,12.9592 146.5,12.5C 145.956,16.6732 146.623,20.5065 148.5,24C 143.542,25.1593 142.208,23.4927 144.5,19C 144.261,16.3647 143.594,13.8647 142.5,11.5 Z"/></g>
<g><path style="opacity:1" fill="#1e1508" d="M 158.5,16.5 C 158.795,14.5767 159.628,12.9101 161,11.5C 162.286,14.4055 163.286,17.4055 164,20.5C 164.574,22.492 165.741,23.992 167.5,25C 165.098,25.8141 162.765,25.6474 160.5,24.5C 161.246,23.2638 161.579,21.9305 161.5,20.5C 158.05,19.7564 156.384,21.0897 156.5,24.5C 155.325,24.719 154.325,24.3857 153.5,23.5C 155.434,21.2757 157.101,18.9424 158.5,16.5 Z"/></g>
<g><path style="opacity:1" fill="#170f05" d="M 123.5,13.5 C 133.82,13.4111 136.154,17.5778 130.5,26C 122.729,28.2191 119.229,25.3857 120,17.5C 120.69,15.6498 121.856,14.3164 123.5,13.5 Z"/></g>
<g><path style="opacity:1" fill="#b78117" d="M 124.5,14.5 C 127.238,13.9648 129.072,14.9648 130,17.5C 130.769,20.0991 130.602,22.5991 129.5,25C 123.481,25.5379 121.314,22.7045 123,16.5C 123.717,15.9558 124.217,15.2891 124.5,14.5 Z"/></g>
<g><path style="opacity:1" fill="#987a24" d="M 158.5,16.5 C 160.465,16.9483 160.798,17.9483 159.5,19.5C 158.614,18.675 158.281,17.675 158.5,16.5 Z"/></g>
<g><path style="opacity:1" fill="#211709" d="M 114.5,15.5 C 116.344,16.2039 116.844,17.5372 116,19.5C 114.093,16.7133 112.593,16.88 111.5,20C 112.462,23.036 113.796,25.8693 115.5,28.5C 113.684,29.9424 111.684,30.4424 109.5,30C 110.728,26.8257 110.561,23.659 109,20.5C 107.062,19.1398 105.396,19.4732 104,21.5C 103.517,20.552 103.351,19.552 103.5,18.5C 107.479,18.2576 111.146,17.2576 114.5,15.5 Z"/></g>
<g><path style="opacity:1" fill="#20180c" d="M 177.5,13.5 C 178.456,14.6594 179.456,15.8261 180.5,17C 179.711,18.6255 178.711,20.1255 177.5,21.5C 178.099,24.0644 179.599,25.7311 182,26.5C 185.596,23.9102 188.929,20.9102 192,17.5C 192.029,22.3529 192.862,27.0196 194.5,31.5C 192.388,32.1995 190.388,31.6995 188.5,30C 191.303,26.5901 190.303,25.0901 185.5,25.5C 185.762,26.9778 185.429,28.3112 184.5,29.5C 181.833,28.877 179.333,27.877 177,26.5C 176.588,24.0031 175.422,22.0031 173.5,20.5C 172.24,22.3529 172.24,24.1862 173.5,26C 171.866,26.4935 170.199,26.6602 168.5,26.5C 170.183,22.3642 170.85,18.0309 170.5,13.5C 172.833,13.5 175.167,13.5 177.5,13.5 Z"/></g>
<g><path style="opacity:1" fill="#c3983e" d="M 173.5,15.5 C 175.346,15.2222 176.68,15.8888 177.5,17.5C 176.68,19.1112 175.346,19.7778 173.5,19.5C 173.5,18.1667 173.5,16.8333 173.5,15.5 Z"/></g>
<g><path style="opacity:1" fill="#ae8839" d="M 188.5,22.5 C 190.337,22.6395 190.67,23.3061 189.5,24.5C 188.702,24.0431 188.369,23.3764 188.5,22.5 Z"/></g>
<g><path style="opacity:1" fill="#21180c" d="M 200.5,23.5 C 204.257,23.0708 207.757,23.7375 211,25.5C 211.749,26.635 211.583,27.635 210.5,28.5C 207.75,23.6836 204.584,23.3502 201,27.5C 199.287,32.1991 200.787,34.5324 205.5,34.5C 205.008,29.7922 206.341,29.2922 209.5,33C 205.563,37.6569 201.729,37.4902 198,32.5C 196.927,28.9003 197.76,25.9003 200.5,23.5 Z"/></g>
<g><path style="opacity:1" fill="#1b1207" d="M 99.5,20.5 C 99.4038,25.1372 101.07,28.9706 104.5,32C 102.919,32.7065 101.419,33.5399 100,34.5C 99.6012,34.2716 99.4346,33.9382 99.5,33.5C 99.5813,29.3274 98.248,25.6607 95.5,22.5C 96.5769,21.2949 97.9102,20.6282 99.5,20.5 Z"/></g>
<g><path style="opacity:1" fill="#e5b034" d="M 71.5,24.5 C 71.0472,25.4584 70.3805,26.2917 69.5,27C 71.0223,28.9162 72.0223,31.0829 72.5,33.5C 71.4264,34.8846 70.0931,36.0513 68.5,37C 71.5998,39.9186 73.5998,43.4186 74.5,47.5C 74.1667,48.5 73.5,49.1667 72.5,49.5C 71.1327,46.8685 70.2994,47.2018 70,50.5C 66.4895,53.5856 64.3229,52.919 63.5,48.5C 60.5,48.8333 59.1667,47.5 59.5,44.5C 57.513,45.1642 55.8463,46.3308 54.5,48C 57.9128,49.2459 60.5795,51.4126 62.5,54.5C 62.6085,56.5138 61.9418,58.1805 60.5,59.5C 57.1675,57 54.3342,54 52,50.5C 50.8333,51.6667 49.6667,52.8333 48.5,54C 53.0612,56.5525 57.0612,59.8859 60.5,64C 58.0728,65.5545 58.0728,66.7211 60.5,67.5C 61.675,67.281 62.675,67.6143 63.5,68.5C 62.7542,69.7362 62.4208,71.0695 62.5,72.5C 58.5983,77.2929 54.9316,82.2929 51.5,87.5C 47.4512,87.9256 43.6178,86.9256 40,84.5C 39.2274,86.3524 39.7274,87.6857 41.5,88.5C 42.965,91.2636 44.2983,94.097 45.5,97C 37.48,114.616 33.8133,133.116 34.5,152.5C 33.2242,154.587 31.7242,156.587 30,158.5C 30.0241,164.751 28.3575,170.417 25,175.5C 24.502,178.482 24.3354,181.482 24.5,184.5C 22.7028,185.73 20.7028,186.396 18.5,186.5C 18.4021,188.553 19.0687,190.22 20.5,191.5C 20.5,191.833 20.5,192.167 20.5,192.5C 20.2627,193.791 20.596,194.791 21.5,195.5C 21.3284,196.492 21.6618,197.158 22.5,197.5C 22.5,197.833 22.5,198.167 22.5,198.5C 23.5009,199.789 23.3342,201.122 22,202.5C 20.2962,204.373 18.4628,206.04 16.5,207.5C -6.67258,155.898 -2.17258,106.898 30,60.5C 41.6071,45.7119 55.4404,33.7119 71.5,24.5 Z"/></g>
<g><path style="opacity:1" fill="#21180a" d="M 89.5,36.5 C 90.1667,37.1667 90.8333,37.8333 91.5,38.5C 86.6223,39.2325 83.6223,37.2325 82.5,32.5C 83.6127,27.5412 86.6127,25.0412 91.5,25C 92.4506,25.7175 92.6172,26.5509 92,27.5C 86.8116,26.0202 84.8116,28.0202 86,33.5C 87.0391,34.7101 88.2058,35.7101 89.5,36.5 Z"/></g>
<g><path style="opacity:1" fill="#1c1409" d="M 217.5,42.5 C 217.5,43.1667 217.167,43.5 216.5,43.5C 213.95,43.1156 212.617,41.6156 212.5,39C 213.597,35.3078 215.097,31.8078 217,28.5C 218.255,29.2106 219.421,30.044 220.5,31C 218.011,33.6357 216.011,36.6357 214.5,40C 214.748,41.7491 215.748,42.5824 217.5,42.5 Z"/></g>
<g><path style="opacity:1" fill="#ecc04c" d="M 239.5,32.5 C 276.542,60.0723 295.875,97.239 297.5,144C 294.05,207.254 263.383,251.587 205.5,277C 192.282,282.143 178.615,285.31 164.5,286.5C 168.439,284.972 170.105,281.972 169.5,277.5C 170.043,277.44 170.376,277.107 170.5,276.5C 168.776,273.05 168.109,269.383 168.5,265.5C 168.629,262.143 168.629,258.477 168.5,254.5C 228.01,240.846 260.01,203.513 264.5,142.5C 263.752,126.754 260.085,111.754 253.5,97.5C 254.833,94.5 256.167,91.5 257.5,88.5C 259.088,87.3647 259.421,86.0314 258.5,84.5C 255.493,85.3367 252.826,86.6701 250.5,88.5C 249.325,88.719 248.325,88.3857 247.5,87.5C 241.27,77.9338 233.937,69.2672 225.5,61.5C 227.144,61.7135 228.644,61.3802 230,60.5C 231.783,56.7018 232.616,52.7018 232.5,48.5C 232.873,45.4261 233.539,42.4261 234.5,39.5C 235.443,36.5999 237.11,34.2666 239.5,32.5 Z"/></g>
<g><path style="opacity:1" fill="#20180c" d="M 74.5,47.5 C 73.5998,43.4186 71.5998,39.9186 68.5,37C 70.0931,36.0513 71.4264,34.8846 72.5,33.5C 77.7873,31.7772 80.1206,33.7772 79.5,39.5C 81.4835,39.3832 83.1502,40.0499 84.5,41.5C 79.296,42.8971 76.6293,40.8971 76.5,35.5C 75.1667,35.5 73.8333,35.5 72.5,35.5C 72.3505,36.552 72.5172,37.552 73,38.5C 74.6665,41.1407 76.8332,43.3074 79.5,45C 77.9221,46.0945 76.2554,46.9278 74.5,47.5 Z"/></g>
<g><path style="opacity:1" fill="#211709" d="M 96.5,33.5 C 96.0581,36.3321 94.7248,37.3321 92.5,36.5C 93.8846,35.4264 95.0513,34.0931 96,32.5C 96.3988,32.7284 96.5654,33.0618 96.5,33.5 Z"/></g>
<g><path style="opacity:1" fill="#141513" d="M 163.5,34.5 C 186.381,38.4588 207.048,47.4588 225.5,61.5C 233.937,69.2672 241.27,77.9338 247.5,87.5C 248.325,88.3857 249.325,88.719 250.5,88.5C 242.29,91.9413 233.623,93.608 224.5,93.5C 224.5,93.1667 224.5,92.8333 224.5,92.5C 231.246,92.0173 237.913,91.0173 244.5,89.5C 228.341,63.2201 205.007,46.7201 174.5,40C 129.854,31.3264 92.354,43.8264 62,77.5C 58.9955,80.8488 56.4955,84.5155 54.5,88.5C 53.7387,89.3909 52.7387,90.0576 51.5,90.5C 48.5588,89.7974 45.7255,88.7974 43,87.5C 42.2352,87.5699 41.7352,87.9033 41.5,88.5C 39.7274,87.6857 39.2274,86.3524 40,84.5C 43.6178,86.9256 47.4512,87.9256 51.5,87.5C 54.9316,82.2929 58.5983,77.2929 62.5,72.5C 72.0451,62.6087 82.7117,54.2754 94.5,47.5C 116.321,37.1363 139.321,32.803 163.5,34.5 Z"/></g>
<g><path style="opacity:1" fill="#382912" d="M 224.5,37.5 C 224.179,34.1198 225.179,33.2865 227.5,35C 226.627,36.045 225.627,36.8783 224.5,37.5 Z"/></g>
<g><path style="opacity:1" fill="#02bfed" d="M 224.5,92.5 C 214.093,92.8458 203.759,92.1792 193.5,90.5C 189.155,90.5861 185.155,91.5861 181.5,93.5C 178.5,93.8333 177.167,92.5 177.5,89.5C 176.167,89.5 174.833,89.5 173.5,89.5C 173.196,88.8501 172.863,88.1835 172.5,87.5C 174.485,85.0704 175.651,82.4037 176,79.5C 174.285,82.7168 171.785,85.0502 168.5,86.5C 167.833,86.5 167.5,86.1667 167.5,85.5C 173.771,81.9558 176.605,76.6225 176,69.5C 173.232,74.1043 169.399,77.4377 164.5,79.5C 161.373,66.9776 156.873,54.6443 151,42.5C 149.333,39.8333 147.667,39.8333 146,42.5C 141.33,54.3802 136.83,66.0468 132.5,77.5C 128.492,75.6578 125.659,72.6578 124,68.5C 123.166,74.4983 124.999,79.4983 129.5,83.5C 129.5,83.8333 129.5,84.1667 129.5,84.5C 126.909,83.7457 125.076,82.079 124,79.5C 123.833,79.8333 123.667,80.1667 123.5,80.5C 124.651,82.8091 125.984,84.9758 127.5,87C 127.011,88.1385 126.678,89.3052 126.5,90.5C 125.85,90.1961 125.183,89.8627 124.5,89.5C 121.331,92.6399 117.664,93.3066 113.5,91.5C 110.034,90.9685 106.534,90.6352 103,90.5C 94.348,91.6304 85.6813,92.6304 77,93.5C 70.1333,93.1051 63.2999,92.4384 56.5,91.5C 55.4489,90.7777 54.7822,89.7777 54.5,88.5C 56.4955,84.5155 58.9955,80.8488 62,77.5C 92.354,43.8264 129.854,31.3264 174.5,40C 205.007,46.7201 228.341,63.2201 244.5,89.5C 237.913,91.0173 231.246,92.0173 224.5,92.5 Z"/></g>
<g><path style="opacity:1" fill="#d69c22" d="M 102.5,10.5 C 102.5,13.8333 102.5,17.1667 102.5,20.5C 101.5,20.5 100.5,20.5 99.5,20.5C 97.9102,20.6282 96.5769,21.2949 95.5,22.5C 98.248,25.6607 99.5813,29.3274 99.5,33.5C 98.7784,33.9175 98.2784,34.5842 98,35.5C 97.7216,34.5842 97.2216,33.9175 96.5,33.5C 96.5654,33.0618 96.3988,32.7284 96,32.5C 95.0513,34.0931 93.8846,35.4264 92.5,36.5C 91.5,36.5 90.5,36.5 89.5,36.5C 88.2058,35.7101 87.0391,34.7101 86,33.5C 84.8116,28.0202 86.8116,26.0202 92,27.5C 92.6172,26.5509 92.4506,25.7175 91.5,25C 86.6127,25.0412 83.6127,27.5412 82.5,32.5C 83.6223,37.2325 86.6223,39.2325 91.5,38.5C 92.5,38.5 93.5,38.5 94.5,38.5C 94.5,41.5 94.5,44.5 94.5,47.5C 82.7117,54.2754 72.0451,62.6087 62.5,72.5C 62.4208,71.0695 62.7542,69.7362 63.5,68.5C 62.675,67.6143 61.675,67.281 60.5,67.5C 63.1667,64.8333 63.1667,62.1667 60.5,59.5C 61.9418,58.1805 62.6085,56.5138 62.5,54.5C 63.1515,55.0906 63.8182,55.7573 64.5,56.5C 67.8044,54.8602 70.471,52.5269 72.5,49.5C 73.5,49.1667 74.1667,48.5 74.5,47.5C 76.2554,46.9278 77.9221,46.0945 79.5,45C 76.8332,43.3074 74.6665,41.1407 73,38.5C 72.5172,37.552 72.3505,36.552 72.5,35.5C 73.8333,35.5 75.1667,35.5 76.5,35.5C 76.6293,40.8971 79.296,42.8971 84.5,41.5C 83.1502,40.0499 81.4835,39.3832 79.5,39.5C 80.1206,33.7772 77.7873,31.7772 72.5,33.5C 72.0223,31.0829 71.0223,28.9162 69.5,27C 70.3805,26.2917 71.0472,25.4584 71.5,24.5C 80.9138,17.9627 91.2471,13.2961 102.5,10.5 Z"/></g>
<g><path style="opacity:1" fill="#533d16" d="M 224.5,37.5 C 223.58,42.4783 220.913,44.4783 216.5,43.5C 217.167,43.5 217.5,43.1667 217.5,42.5C 218.552,42.6495 219.552,42.4828 220.5,42C 221.733,40.3333 223.067,38.8333 224.5,37.5 Z"/></g>
<g><path style="opacity:1" fill="#130d05" d="M 234.5,39.5 C 233.539,42.4261 232.873,45.4261 232.5,48.5C 231.698,49.9516 231.198,51.6183 231,53.5C 229.926,52.3816 228.76,51.3816 227.5,50.5C 228.853,49.4763 229.52,48.143 229.5,46.5C 230.141,45.5178 230.807,44.5178 231.5,43.5C 231.043,42.7025 230.376,42.3691 229.5,42.5C 230.899,41.1103 232.566,40.1103 234.5,39.5 Z"/></g>
<g><path style="opacity:1" fill="#382a13" d="M 59.5,44.5 C 60.8173,41.2468 62.8173,40.4135 65.5,42C 63.3716,42.6552 61.3716,43.4886 59.5,44.5 Z"/></g>
<g><path style="opacity:1" fill="#47381b" d="M 229.5,42.5 C 230.376,42.3691 231.043,42.7025 231.5,43.5C 230.807,44.5178 230.141,45.5178 229.5,46.5C 228.584,46.0183 227.584,45.685 226.5,45.5C 224.817,47.4631 223.151,47.6297 221.5,46C 224.071,44.5462 226.738,43.3795 229.5,42.5 Z"/></g>
<g><path style="opacity:1" fill="#251b0e" d="M 59.5,44.5 C 59.1667,47.5 60.5,48.8333 63.5,48.5C 64.3229,52.919 66.4895,53.5856 70,50.5C 70.2994,47.2018 71.1327,46.8685 72.5,49.5C 70.471,52.5269 67.8044,54.8602 64.5,56.5C 63.8182,55.7573 63.1515,55.0906 62.5,54.5C 60.5795,51.4126 57.9128,49.2459 54.5,48C 55.8463,46.3308 57.513,45.1642 59.5,44.5 Z"/></g>
<g><path style="opacity:0.999" fill="#141008" d="M 242.5,50.5 C 241.235,52.3569 241.568,54.0236 243.5,55.5C 240.832,55.8337 238.832,57.1671 237.5,59.5C 236.5,59.1667 235.833,58.5 235.5,57.5C 237.197,56.6364 238.363,55.3031 239,53.5C 239.667,50.8333 240.333,48.1667 241,45.5C 241.925,46.0465 242.758,46.7132 243.5,47.5C 242.873,48.4168 242.539,49.4168 242.5,50.5 Z"/></g>
<g><path style="opacity:1" fill="#443315" d="M 63.5,48.5 C 64.6649,44.7237 66.3315,44.557 68.5,48C 66.8659,48.4935 65.1992,48.6602 63.5,48.5 Z"/></g>
<g><path style="opacity:1" fill="#8b8c8d" d="M 147.5,79.5 C 144.834,79.933 142.168,80.433 139.5,81C 142.167,83.3333 144.833,85.6667 147.5,88C 147.167,88.1667 146.833,88.3333 146.5,88.5C 142.859,86.1897 139.526,83.523 136.5,80.5C 136.289,70.2795 138.956,60.9462 144.5,52.5C 145.558,51.3998 146.392,50.0664 147,48.5C 147.5,58.828 147.666,69.1613 147.5,79.5 Z"/></g>
<g><path style="opacity:1" fill="#241b0d" d="M 60.5,59.5 C 63.1667,62.1667 63.1667,64.8333 60.5,67.5C 58.0728,66.7211 58.0728,65.5545 60.5,64C 57.0612,59.8859 53.0612,56.5525 48.5,54C 49.6667,52.8333 50.8333,51.6667 52,50.5C 54.3342,54 57.1675,57 60.5,59.5 Z"/></g>
<g><path style="opacity:1" fill="#604f26" d="M 242.5,50.5 C 242.5,51.5 242.5,52.5 242.5,53.5C 250.956,52.2714 251.289,52.9381 243.5,55.5C 241.568,54.0236 241.235,52.3569 242.5,50.5 Z"/></g>
<g><path style="opacity:1" fill="#322410" d="M 42.5,61.5 C 43.1164,57.9941 44.7831,57.1608 47.5,59C 45.5483,59.3661 43.8816,60.1995 42.5,61.5 Z"/></g>
<g><path style="opacity:1" fill="#2a2011" d="M 42.5,61.5 C 42.1667,64.5 43.5,65.8333 46.5,65.5C 46.3954,60.846 47.7287,60.346 50.5,64C 45.172,66.5502 45.5054,68.3836 51.5,69.5C 50.8358,71.487 49.6692,73.1537 48,74.5C 46.4119,69.9481 43.2452,67.1148 38.5,66C 39.3281,64.0077 40.6614,62.5077 42.5,61.5 Z"/></g>
<g><path style="opacity:1" fill="#298baa" d="M 164.5,79.5 C 163.167,82.1667 161.833,82.1667 160.5,79.5C 160.665,75.8183 160.499,72.1516 160,68.5C 156.437,59.707 152.603,51.0403 148.5,42.5C 146.579,45.5963 145.246,48.9296 144.5,52.5C 138.956,60.9462 136.289,70.2795 136.5,80.5C 135.128,79.4884 133.795,78.4884 132.5,77.5C 136.83,66.0468 141.33,54.3802 146,42.5C 147.667,39.8333 149.333,39.8333 151,42.5C 156.873,54.6443 161.373,66.9776 164.5,79.5 Z"/></g>
<g><path style="opacity:1" fill="#d8dcdb" d="M 160.5,79.5 C 156.167,79.5 151.833,79.5 147.5,79.5C 147.666,69.1613 147.5,58.828 147,48.5C 146.392,50.0664 145.558,51.3998 144.5,52.5C 145.246,48.9296 146.579,45.5963 148.5,42.5C 152.603,51.0403 156.437,59.707 160,68.5C 160.499,72.1516 160.665,75.8183 160.5,79.5 Z"/></g>
<g><path style="opacity:1" fill="#1c160d" d="M 248.5,57.5 C 257.61,57.7516 260.277,61.9183 256.5,70C 253.431,71.9101 250.431,71.9101 247.5,70C 251.232,70.188 254.066,68.688 256,65.5C 256.72,63.8876 256.554,62.3876 255.5,61C 249.434,59.726 246.268,62.226 246,68.5C 244.482,66.3863 244.149,64.053 245,61.5C 246.376,60.2949 247.542,58.9616 248.5,57.5 Z"/></g>
<g><path style="opacity:1" fill="#3e2e14" d="M 51.5,69.5 C 52.451,67.528 53.451,65.528 54.5,63.5C 55.4669,66.2634 54.4669,68.2634 51.5,69.5 Z"/></g>
<g><path style="opacity:1" fill="#0c0d0e" d="M 132.5,77.5 C 133.795,78.4884 135.128,79.4884 136.5,80.5C 139.526,83.523 142.859,86.1897 146.5,88.5C 146.833,88.3333 147.167,88.1667 147.5,88C 144.833,85.6667 142.167,83.3333 139.5,81C 142.168,80.433 144.834,79.933 147.5,79.5C 151.833,79.5 156.167,79.5 160.5,79.5C 161.833,82.1667 163.167,82.1667 164.5,79.5C 169.399,77.4377 173.232,74.1043 176,69.5C 176.605,76.6225 173.771,81.9558 167.5,85.5C 163.006,86.6673 159.173,89.0007 156,92.5C 154.558,96.511 152.558,100.178 150,103.5C 147.536,98.7894 144.703,94.2894 141.5,90C 137.313,88.0751 133.313,85.9084 129.5,83.5C 124.999,79.4983 123.166,74.4983 124,68.5C 125.659,72.6578 128.492,75.6578 132.5,77.5 Z"/></g>
<g><path style="opacity:1" fill="#090b0c" d="M 129.5,84.5 C 130.476,85.8149 131.476,87.1482 132.5,88.5C 129.24,93.7015 130.24,97.8682 135.5,101C 138.54,101.32 141.54,101.32 144.5,101C 136.964,106.49 131.131,104.99 127,96.5C 126.505,94.5273 126.338,92.5273 126.5,90.5C 126.678,89.3052 127.011,88.1385 127.5,87C 125.984,84.9758 124.651,82.8091 123.5,80.5C 123.667,80.1667 123.833,79.8333 124,79.5C 125.076,82.079 126.909,83.7457 129.5,84.5 Z"/></g>
<g><path style="opacity:1" fill="#0b0e10" d="M 173.5,89.5 C 174.81,98.186 171.143,103.186 162.5,104.5C 159.972,104.237 157.639,103.404 155.5,102C 154.289,101.107 154.289,100.274 155.5,99.5C 162.485,103.009 167.152,101.009 169.5,93.5C 168.108,91.155 167.775,88.8216 168.5,86.5C 171.785,85.0502 174.285,82.7168 176,79.5C 175.651,82.4037 174.485,85.0704 172.5,87.5C 172.863,88.1835 173.196,88.8501 173.5,89.5 Z"/></g>
<g><path style="opacity:1" fill="#253339" d="M 113.5,91.5 C 107.167,92.1667 100.833,92.8333 94.5,93.5C 91.997,94.3705 89.3303,95.0372 86.5,95.5C 80.3466,94.6721 74.0133,94.1721 67.5,94C 63.6083,93.5812 59.9416,92.7479 56.5,91.5C 63.2999,92.4384 70.1333,93.1051 77,93.5C 85.6813,92.6304 94.348,91.6304 103,90.5C 106.534,90.6352 110.034,90.9685 113.5,91.5 Z"/></g>
<g><path style="opacity:1" fill="#787776" d="M 257.5,88.5 C 249.884,91.316 242.217,93.6493 234.5,95.5C 232.167,95.5 229.833,95.5 227.5,95.5C 223.167,95.5 218.833,95.5 214.5,95.5C 213.5,95.5 212.5,95.5 211.5,95.5C 215.833,94.8333 220.167,94.1667 224.5,93.5C 233.623,93.608 242.29,91.9413 250.5,88.5C 252.826,86.6701 255.493,85.3367 258.5,84.5C 259.421,86.0314 259.088,87.3647 257.5,88.5 Z"/></g>
<g><path style="opacity:1" fill="#0d0a09" d="M 94.5,93.5 C 104.645,93.0923 114.645,94.0923 124.5,96.5C 125.513,98.5266 126.513,100.527 127.5,102.5C 122.325,100.553 116.992,99.2199 111.5,98.5C 110.791,97.596 109.791,97.2627 108.5,97.5C 95.69,96.8672 83.0233,96.5339 70.5,96.5C 75.8797,96.6757 81.213,96.3424 86.5,95.5C 89.3303,95.0372 91.997,94.3705 94.5,93.5 Z"/></g>
<g><path style="opacity:1" fill="#3e4c53" d="M 224.5,92.5 C 224.5,92.8333 224.5,93.1667 224.5,93.5C 220.167,94.1667 215.833,94.8333 211.5,95.5C 202.927,93.9222 194.261,93.2555 185.5,93.5C 184.167,93.5 182.833,93.5 181.5,93.5C 185.155,91.5861 189.155,90.5861 193.5,90.5C 203.759,92.1792 214.093,92.8458 224.5,92.5 Z"/></g>
<g><path style="opacity:1" fill="#7a7c7c" d="M 41.5,88.5 C 41.7352,87.9033 42.2352,87.5699 43,87.5C 45.7255,88.7974 48.5588,89.7974 51.5,90.5C 52.7387,90.0576 53.7387,89.3909 54.5,88.5C 54.7822,89.7777 55.4489,90.7777 56.5,91.5C 59.9416,92.7479 63.6083,93.5812 67.5,94C 74.0133,94.1721 80.3466,94.6721 86.5,95.5C 81.213,96.3424 75.8797,96.6757 70.5,96.5C 62.9714,94.7257 55.3048,93.059 47.5,91.5C 45.5739,90.5139 43.5739,89.5139 41.5,88.5 Z"/></g>
<g><path style="opacity:1" fill="#664c34" d="M 47.5,91.5 C 55.3048,93.059 62.9714,94.7257 70.5,96.5C 83.0233,96.5339 95.69,96.8672 108.5,97.5C 102.681,98.3276 96.6807,98.8276 90.5,99C 96.8264,99.7326 103.16,100.399 109.5,101C 105.738,103.156 101.738,103.823 97.5,103C 98.6956,102.346 98.6956,101.846 97.5,101.5C 92.2371,103.895 86.9038,104.061 81.5,102C 83.6079,101.64 85.6079,100.973 87.5,100C 83.6939,100.224 79.8606,100.724 76,101.5C 73.2261,101.695 71.0595,100.695 69.5,98.5C 63.1722,97.404 56.8388,97.404 50.5,98.5C 48.4002,96.502 46.4002,94.3353 44.5,92C 45.448,91.5172 46.448,91.3505 47.5,91.5 Z"/></g>
<g><path style="opacity:1" fill="#7a7b7b" d="M 129.5,83.5 C 133.313,85.9084 137.313,88.0751 141.5,90C 144.703,94.2894 147.536,98.7894 150,103.5C 152.558,100.178 154.558,96.511 156,92.5C 159.173,89.0007 163.006,86.6673 167.5,85.5C 167.5,86.1667 167.833,86.5 168.5,86.5C 167.775,88.8216 168.108,91.155 169.5,93.5C 167.152,101.009 162.485,103.009 155.5,99.5C 154.289,100.274 154.289,101.107 155.5,102C 157.639,103.404 159.972,104.237 162.5,104.5C 171.143,103.186 174.81,98.186 173.5,89.5C 174.833,89.5 176.167,89.5 177.5,89.5C 177.167,92.5 178.5,93.8333 181.5,93.5C 182.833,93.5 184.167,93.5 185.5,93.5C 182.797,94.963 179.797,95.7963 176.5,96C 170.939,105.787 163.272,107.954 153.5,102.5C 151.024,105.069 148.524,105.069 146,102.5C 142.266,105.076 138.1,106.076 133.5,105.5C 133.167,105.5 132.833,105.5 132.5,105.5C 131.021,104.241 129.354,103.241 127.5,102.5C 126.513,100.527 125.513,98.5266 124.5,96.5C 114.645,94.0923 104.645,93.0923 94.5,93.5C 100.833,92.8333 107.167,92.1667 113.5,91.5C 117.664,93.3066 121.331,92.6399 124.5,89.5C 125.183,89.8627 125.85,90.1961 126.5,90.5C 126.338,92.5273 126.505,94.5273 127,96.5C 131.131,104.99 136.964,106.49 144.5,101C 141.54,101.32 138.54,101.32 135.5,101C 130.24,97.8682 129.24,93.7015 132.5,88.5C 131.476,87.1482 130.476,85.8149 129.5,84.5C 129.5,84.1667 129.5,83.8333 129.5,83.5 Z"/></g>
<g><path style="opacity:1" fill="#161616" d="M 162.5,88.5 C 163.822,88.33 164.989,88.6634 166,89.5C 167.329,98.0219 164.163,100.689 156.5,97.5C 158.078,96.7022 159.744,96.2022 161.5,96C 164.044,94.2252 164.044,92.3918 161.5,90.5C 161.863,89.8165 162.196,89.1499 162.5,88.5 Z"/></g>
<g><path style="opacity:1" fill="#141414" d="M 133.5,89.5 C 135.103,89.3118 136.437,89.8118 137.5,91C 135.266,95.9492 136.933,98.4492 142.5,98.5C 134.486,100.486 131.486,97.4862 133.5,89.5 Z"/></g>
<g><path style="opacity:1" fill="#674c30" d="M 257.5,88.5 C 256.167,91.5 254.833,94.5 253.5,97.5C 252.778,97.0825 252.278,96.4158 252,95.5C 249.585,96.4113 248.085,98.078 247.5,100.5C 243.656,102.587 239.989,104.92 236.5,107.5C 226.894,109.427 217.56,108.593 208.5,105C 211.31,104.218 213.977,103.384 216.5,102.5C 218.903,102.448 221.236,102.781 223.5,103.5C 227.81,106.661 232.477,107.161 237.5,105C 238.252,104.329 238.586,103.496 238.5,102.5C 239.434,101.432 239.768,100.099 239.5,98.5C 241.199,98.6602 242.866,98.4935 244.5,98C 241.009,97.262 237.675,96.4287 234.5,95.5C 242.217,93.6493 249.884,91.316 257.5,88.5 Z"/></g>
<g><path style="opacity:1" fill="#060404" d="M 185.5,93.5 C 194.261,93.2555 202.927,93.9222 211.5,95.5C 212.5,95.5 213.5,95.5 214.5,95.5C 217.977,96.3227 221.644,96.8227 225.5,97C 214.176,96.6979 202.843,96.6979 191.5,97C 185.505,97.5817 179.838,99.2484 174.5,102C 175.5,102.333 176.5,102.667 177.5,103C 168.295,104.619 160.962,109.453 155.5,117.5C 156.5,118.167 157.5,118.833 158.5,119.5C 157.127,119.343 155.793,119.51 154.5,120C 152.338,122.558 150.338,125.058 148.5,127.5C 147.683,124.521 146.849,121.521 146,118.5C 145.617,117.944 145.117,117.611 144.5,117.5C 141.536,112.869 137.869,108.869 133.5,105.5C 138.1,106.076 142.266,105.076 146,102.5C 148.524,105.069 151.024,105.069 153.5,102.5C 163.272,107.954 170.939,105.787 176.5,96C 179.797,95.7963 182.797,94.963 185.5,93.5 Z"/></g>
<g><path style="opacity:1" fill="#d79c21" d="M 34.5,152.5 C 36.6941,171.08 42.6941,188.413 52.5,204.5C 49.9513,209.603 47.9513,214.936 46.5,220.5C 45.4206,222.543 43.754,223.876 41.5,224.5C 39.9519,224.179 39.2852,223.179 39.5,221.5C 41.14,218.851 42.8067,216.184 44.5,213.5C 40.3829,213.195 36.3829,214.195 32.5,216.5C 32.8333,216.833 33.1667,217.167 33.5,217.5C 35.0709,216.691 36.7376,216.357 38.5,216.5C 38.6168,218.484 37.9501,220.15 36.5,221.5C 36.8627,222.183 37.1961,222.85 37.5,223.5C 37.8333,224.167 38.1667,224.833 38.5,225.5C 37.5711,228.412 36.2378,231.079 34.5,233.5C 27.3628,225.683 21.3628,217.017 16.5,207.5C 18.4628,206.04 20.2962,204.373 22,202.5C 23.3342,201.122 23.5009,199.789 22.5,198.5C 25.8081,196.716 27.4747,197.716 27.5,201.5C 24.0429,201.667 23.7096,202.667 26.5,204.5C 29.4729,202.194 32.1395,199.527 34.5,196.5C 33.3112,195.571 31.9778,195.238 30.5,195.5C 27.5,195.5 24.5,195.5 21.5,195.5C 20.596,194.791 20.2627,193.791 20.5,192.5C 21.2646,192.923 22.0979,193.257 23,193.5C 25.1949,192.2 27.5282,191.2 30,190.5C 30.755,187.697 30.4217,185.03 29,182.5C 27.8904,184.037 26.3904,184.703 24.5,184.5C 24.3354,181.482 24.502,178.482 25,175.5C 28.3575,170.417 30.0241,164.751 30,158.5C 31.7242,156.587 33.2242,154.587 34.5,152.5 Z"/></g>
<g><path style="opacity:1" fill="#1f160b" d="M 20.5,192.5 C 20.5,192.167 20.5,191.833 20.5,191.5C 19.0687,190.22 18.4021,188.553 18.5,186.5C 20.7028,186.396 22.7028,185.73 24.5,184.5C 26.3904,184.703 27.8904,184.037 29,182.5C 30.4217,185.03 30.755,187.697 30,190.5C 27.5282,191.2 25.1949,192.2 23,193.5C 22.0979,193.257 21.2646,192.923 20.5,192.5 Z"/></g>
<g><path style="opacity:1" fill="#b68f3b" d="M 20.5,191.5 C 20.33,190.178 20.6634,189.011 21.5,188C 24.1168,187.178 26.7835,186.678 29.5,186.5C 29.5,187.5 29.5,188.5 29.5,189.5C 26.5,190.167 23.5,190.833 20.5,191.5 Z"/></g>
<g><path style="opacity:1" fill="#251e11" d="M 270.5,183.5 C 272.685,183.888 274.518,184.888 276,186.5C 277.44,185.852 278.94,185.519 280.5,185.5C 280.5,186.5 280.5,187.5 280.5,188.5C 273.338,188.613 273.005,189.613 279.5,191.5C 279,192.5 278.5,193.5 278,194.5C 274.827,192.387 271.327,191.387 267.5,191.5C 267.394,188.385 268.394,185.719 270.5,183.5 Z"/></g>
<g><path style="opacity:1" fill="#c5a44c" d="M 269.5,186.5 C 270.833,186.5 272.167,186.5 273.5,186.5C 273.5,187.5 273.5,188.5 273.5,189.5C 272.167,189.5 270.833,189.5 269.5,189.5C 269.5,188.5 269.5,187.5 269.5,186.5 Z"/></g>
<g><path style="opacity:1" fill="#846426" d="M 21.5,195.5 C 24.5,195.5 27.5,195.5 30.5,195.5C 30.719,196.675 30.3857,197.675 29.5,198.5C 27.2693,196.4 24.936,196.067 22.5,197.5C 21.6618,197.158 21.3284,196.492 21.5,195.5 Z"/></g>
<g><path style="opacity:1" fill="#2c2315" d="M 270.5,202.5 C 268.329,200.5 265.996,198.666 263.5,197C 267.871,196.172 272.205,196.339 276.5,197.5C 276.192,198.308 275.692,198.975 275,199.5C 272.226,198.236 270.726,199.236 270.5,202.5 Z"/></g>
<g><path style="opacity:1" fill="#20180c" d="M 30.5,195.5 C 31.9778,195.238 33.3112,195.571 34.5,196.5C 32.1395,199.527 29.4729,202.194 26.5,204.5C 23.7096,202.667 24.0429,201.667 27.5,201.5C 27.4747,197.716 25.8081,196.716 22.5,198.5C 22.5,198.167 22.5,197.833 22.5,197.5C 24.936,196.067 27.2693,196.4 29.5,198.5C 30.3857,197.675 30.719,196.675 30.5,195.5 Z"/></g>
<g><path style="opacity:1" fill="#100d07" d="M 41.5,88.5 C 43.5739,89.5139 45.5739,90.5139 47.5,91.5C 46.448,91.3505 45.448,91.5172 44.5,92C 46.4002,94.3353 48.4002,96.502 50.5,98.5C 49.5041,98.4142 48.6708,98.7476 48,99.5C 44.931,105.209 42.7644,111.209 41.5,117.5C 37.6725,129.503 36.6725,141.836 38.5,154.5C 38.5,156.167 38.5,157.833 38.5,159.5C 41.0617,176.017 47.0617,191.184 56.5,205C 59.6693,205.978 62.5027,205.478 65,203.5C 65.3826,204.056 65.8826,204.389 66.5,204.5C 69.4789,206.812 72.1456,209.479 74.5,212.5C 72.8608,213.916 72.0275,215.583 72,217.5C 86.357,232.764 103.857,242.43 124.5,246.5C 135.045,249.326 145.712,249.992 156.5,248.5C 184.15,247.348 207.65,237.015 227,217.5C 227.667,216.833 227.667,216.167 227,215.5C 225.482,214.837 224.315,213.837 223.5,212.5C 226.806,209.86 229.806,206.86 232.5,203.5C 236.459,202.894 240.459,202.227 244.5,201.5C 251.366,191.098 256.032,179.765 258.5,167.5C 260.031,162.75 260.698,157.75 260.5,152.5C 261.997,143.976 261.663,135.643 259.5,127.5C 258.833,116.999 255.666,107.332 250,98.5C 249.292,99.3805 248.458,100.047 247.5,100.5C 248.085,98.078 249.585,96.4113 252,95.5C 252.278,96.4158 252.778,97.0825 253.5,97.5C 260.085,111.754 263.752,126.754 264.5,142.5C 260.01,203.513 228.01,240.846 168.5,254.5C 152.381,256.313 136.381,255.646 120.5,252.5C 92.2488,244.378 69.5822,228.378 52.5,204.5C 42.6941,188.413 36.6941,171.08 34.5,152.5C 33.8133,133.116 37.48,114.616 45.5,97C 44.2983,94.097 42.965,91.2636 41.5,88.5 Z"/></g>
<g><path style="opacity:1" fill="#031b20" d="M 157.5,195.5 C 158.922,195.75 159.922,196.583 160.5,198C 176.497,198.5 192.497,198.667 208.5,198.5C 204.167,203.167 199.833,207.833 195.5,212.5C 191.503,211.668 188.836,213.168 187.5,217C 180.315,219.275 172.982,219.942 165.5,219C 165.031,215.92 164.865,212.754 165,209.5C 162.169,209.042 159.836,207.708 158,205.5C 157.502,202.183 157.335,198.85 157.5,195.5 Z"/></g>
<g><path style="opacity:1" fill="#b18e22" d="M 232.5,203.5 C 229.806,206.86 226.806,209.86 223.5,212.5C 219.765,209.432 215.765,206.765 211.5,204.5C 206.84,208.158 202.174,211.825 197.5,215.5C 196.833,214.5 196.167,213.5 195.5,212.5C 199.833,207.833 204.167,203.167 208.5,198.5C 210.599,196.006 212.932,193.673 215.5,191.5C 216.815,195.393 217.482,199.393 217.5,203.5C 222.5,203.5 227.5,203.5 232.5,203.5 Z"/></g>
<g><path style="opacity:1" fill="#c08a1c" d="M 84.5,191.5 C 90.2601,198.764 96.5935,205.597 103.5,212C 102.695,213.113 102.028,214.279 101.5,215.5C 109.407,221.358 118.074,225.691 127.5,228.5C 125.799,229.211 124.799,230.545 124.5,232.5C 122.61,234.59 120.943,236.923 119.5,239.5C 119.833,239.833 120.167,240.167 120.5,240.5C 122.297,237.904 123.631,238.237 124.5,241.5C 125.325,242.386 126.325,242.719 127.5,242.5C 125.771,243.236 124.771,244.57 124.5,246.5C 103.857,242.43 86.357,232.764 72,217.5C 72.0275,215.583 72.8608,213.916 74.5,212.5C 72.1456,209.479 69.4789,206.812 66.5,204.5C 71.3471,203.381 76.3471,203.381 81.5,204.5C 81.3359,201.813 81.5026,199.146 82,196.5C 82.0995,194.347 82.9328,192.681 84.5,191.5 Z"/></g>
<g><path style="opacity:1" fill="#031e24" d="M 98.5,156.5 C 113.076,163.016 128.409,166.35 144.5,166.5C 144.5,167.5 144.5,168.5 144.5,169.5C 139.773,169.779 135.107,170.446 130.5,171.5C 129.957,171.56 129.624,171.893 129.5,172.5C 142.817,173.499 156.15,173.833 169.5,173.5C 175.811,173.853 176.145,172.853 170.5,170.5C 173.765,170.918 176.765,172.085 179.5,174C 171.841,174.5 164.174,174.666 156.5,174.5C 151.786,174.173 147.12,174.507 142.5,175.5C 145.086,176.48 147.753,176.813 150.5,176.5C 152.607,177.468 154.941,177.802 157.5,177.5C 149.01,178.33 140.343,178.83 131.5,179C 130.594,180.699 130.261,182.533 130.5,184.5C 133.833,184.5 137.167,184.5 140.5,184.5C 142.204,193.426 142.704,202.426 142,211.5C 140.73,215.77 137.896,218.27 133.5,219C 126.167,219.667 118.833,219.667 111.5,219C 108.439,216.965 105.105,215.799 101.5,215.5C 102.028,214.279 102.695,213.113 103.5,212C 96.5935,205.597 90.2601,198.764 84.5,191.5C 102.503,191.667 120.503,191.5 138.5,191C 139.727,189.413 139.394,188.079 137.5,187C 134.833,186.667 132.167,186.333 129.5,186C 126.595,182.626 126.928,179.626 130.5,177C 133.882,176.824 137.215,176.324 140.5,175.5C 118.169,175.348 117.835,172.848 139.5,168C 128.538,167.507 117.871,165.507 107.5,162C 104.102,160.643 101.102,158.81 98.5,156.5 Z"/></g>
<g><path style="opacity:1" fill="#0a0907" d="M 156.5,175.5 C 160.247,175.392 163.914,175.892 167.5,177C 171.424,180.182 171.424,183.182 167.5,186C 164.242,186.212 161.076,186.712 158,187.5C 157.503,190.146 157.336,192.813 157.5,195.5C 157.335,198.85 157.502,202.183 158,205.5C 159.836,207.708 162.169,209.042 165,209.5C 164.865,212.754 165.031,215.92 165.5,219C 172.982,219.942 180.315,219.275 187.5,217C 188.836,213.168 191.503,211.668 195.5,212.5C 196.167,213.5 196.833,214.5 197.5,215.5C 186.064,223.645 173.397,228.645 159.5,230.5C 148.742,230.902 138.075,230.236 127.5,228.5C 118.074,225.691 109.407,221.358 101.5,215.5C 105.105,215.799 108.439,216.965 111.5,219C 118.833,219.667 126.167,219.667 133.5,219C 137.896,218.27 140.73,215.77 142,211.5C 142.704,202.426 142.204,193.426 140.5,184.5C 149.833,184.5 159.167,184.5 168.5,184.5C 168.739,182.533 168.406,180.699 167.5,179C 164.312,177.684 160.978,177.184 157.5,177.5C 154.941,177.802 152.607,177.468 150.5,176.5C 152.735,176.795 154.735,176.461 156.5,175.5 Z"/></g>
<g><path style="opacity:1" fill="#8e8e8c" d="M 150.5,198.5 C 156.753,198.52 157.086,200.02 151.5,203C 149.187,203.662 146.854,204.162 144.5,204.5C 144.5,203.167 144.5,201.833 144.5,200.5C 146.898,200.741 148.898,200.074 150.5,198.5 Z"/></g>
<g><path style="opacity:1" fill="#7f7f7f" d="M 153.5,192.5 C 155.466,193.255 155.8,194.421 154.5,196C 150.979,197.674 147.313,198.84 143.5,199.5C 143.33,198.178 143.663,197.011 144.5,196C 147.718,195.1 150.718,193.933 153.5,192.5 Z"/></g>
<g><path style="opacity:1" fill="#878684" d="M 152.5,187.5 C 153.5,187.5 154.5,187.5 155.5,187.5C 155.67,188.822 155.337,189.989 154.5,191C 151.129,192.068 147.796,193.235 144.5,194.5C 144.167,193.833 143.833,193.167 143.5,192.5C 143.747,191.287 144.414,190.62 145.5,190.5C 147.987,189.677 150.321,188.677 152.5,187.5 Z"/></g>
<g><path style="opacity:1" fill="#565553" d="M 152.5,187.5 C 150.321,188.677 147.987,189.677 145.5,190.5C 144.032,189.221 143.365,187.554 143.5,185.5C 146.85,185.335 150.183,185.502 153.5,186C 152.944,186.383 152.611,186.883 152.5,187.5 Z"/></g>
<g><path style="opacity:1" fill="#908f8e" d="M 157.5,177.5 C 160.978,177.184 164.312,177.684 167.5,179C 168.406,180.699 168.739,182.533 168.5,184.5C 159.167,184.5 149.833,184.5 140.5,184.5C 137.167,184.5 133.833,184.5 130.5,184.5C 130.261,182.533 130.594,180.699 131.5,179C 140.343,178.83 149.01,178.33 157.5,177.5 Z"/></g>
<g><path style="opacity:1" fill="#5c5b5d" d="M 156.5,174.5 C 156.5,174.833 156.5,175.167 156.5,175.5C 154.735,176.461 152.735,176.795 150.5,176.5C 147.753,176.813 145.086,176.48 142.5,175.5C 147.12,174.507 151.786,174.173 156.5,174.5 Z"/></g>
<g><path style="opacity:1" fill="#691a1b" d="M 130.5,171.5 C 143.5,172.167 156.5,172.833 169.5,173.5C 156.15,173.833 142.817,173.499 129.5,172.5C 129.624,171.893 129.957,171.56 130.5,171.5 Z"/></g>
<g><path style="opacity:1" fill="#ccc239" d="M 87.5,146.5 C 89.1394,148.806 91.1394,150.806 93.5,152.5C 91.6755,158.846 90.1755,158.846 89,152.5C 80.9857,160.681 72.8191,168.681 64.5,176.5C 64.1667,176.333 63.8333,176.167 63.5,176C 68.7838,170.562 73.4505,164.728 77.5,158.5C 78.8333,157.833 79.8333,156.833 80.5,155.5C 83.075,152.681 85.4083,149.681 87.5,146.5 Z"/></g>
<g><path style="opacity:1" fill="#4f252b" d="M 171.5,165.5 C 172.29,164.599 173.29,163.932 174.5,163.5C 174.56,164.043 174.893,164.376 175.5,164.5C 179.02,163.74 182.353,162.74 185.5,161.5C 189.001,160.056 192.668,158.89 196.5,158C 199.076,157.218 201.076,155.718 202.5,153.5C 202.291,152.914 201.957,152.414 201.5,152C 200.167,151.833 198.833,151.667 197.5,151.5C 193.418,152.056 189.751,153.39 186.5,155.5C 185.167,155.5 184.5,154.833 184.5,153.5C 186.181,151.992 188.181,150.992 190.5,150.5C 194.927,149.171 199.261,149.337 203.5,151C 204.935,153.267 204.602,155.267 202.5,157C 192.852,162.166 182.518,164.999 171.5,165.5 Z"/></g>
<g><path style="opacity:1" fill="#034857" d="M 93.5,152.5 C 93.8333,152.5 94.1667,152.5 94.5,152.5C 96.1667,153.5 97.5,154.833 98.5,156.5C 101.102,158.81 104.102,160.643 107.5,162C 117.871,165.507 128.538,167.507 139.5,168C 117.835,172.848 118.169,175.348 140.5,175.5C 137.215,176.324 133.882,176.824 130.5,177C 126.928,179.626 126.595,182.626 129.5,186C 132.167,186.333 134.833,186.667 137.5,187C 139.394,188.079 139.727,189.413 138.5,191C 120.503,191.5 102.503,191.667 84.5,191.5C 82.9328,192.681 82.0995,194.347 82,196.5C 81.5026,199.146 81.3359,201.813 81.5,204.5C 76.3471,203.381 71.3471,203.381 66.5,204.5C 65.8826,204.389 65.3826,204.056 65,203.5C 62.5027,205.478 59.6693,205.978 56.5,205C 47.0617,191.184 41.0617,176.017 38.5,159.5C 51.5224,159.711 64.5224,159.378 77.5,158.5C 73.4505,164.728 68.7838,170.562 63.5,176C 63.8333,176.167 64.1667,176.333 64.5,176.5C 72.8191,168.681 80.9857,160.681 89,152.5C 90.1755,158.846 91.6755,158.846 93.5,152.5 Z"/></g>
<g><path style="opacity:1" fill="#034352" d="M 233.5,168.5 C 236.129,171.631 238.962,174.631 242,177.5C 242.667,176.833 242.667,176.167 242,175.5C 239.715,172.568 237.215,169.902 234.5,167.5C 234.167,166.833 233.833,166.167 233.5,165.5C 241.664,167.367 249.998,168.034 258.5,167.5C 256.032,179.765 251.366,191.098 244.5,201.5C 240.459,202.227 236.459,202.894 232.5,203.5C 227.5,203.5 222.5,203.5 217.5,203.5C 217.482,199.393 216.815,195.393 215.5,191.5C 212.932,193.673 210.599,196.006 208.5,198.5C 192.497,198.667 176.497,198.5 160.5,198C 159.922,196.583 158.922,195.75 157.5,195.5C 157.336,192.813 157.503,190.146 158,187.5C 161.076,186.712 164.242,186.212 167.5,186C 171.424,183.182 171.424,180.182 167.5,177C 163.914,175.892 160.247,175.392 156.5,175.5C 156.5,175.167 156.5,174.833 156.5,174.5C 164.174,174.666 171.841,174.5 179.5,174C 176.765,172.085 173.765,170.918 170.5,170.5C 167.482,170.665 164.482,170.498 161.5,170C 160.62,168.644 160.286,167.144 160.5,165.5C 164.167,165.5 167.833,165.5 171.5,165.5C 182.518,164.999 192.852,162.166 202.5,157C 204.602,155.267 204.935,153.267 203.5,151C 199.261,149.337 194.927,149.171 190.5,150.5C 193.203,149.037 196.203,148.204 199.5,148C 200.252,147.329 200.586,146.496 200.5,145.5C 200.238,144.022 200.571,142.689 201.5,141.5C 206.539,146.537 211.206,151.871 215.5,157.5C 216.298,155.922 216.798,154.256 217,152.5C 222.369,158.036 227.869,163.37 233.5,168.5 Z"/></g>
<g><path style="opacity:1" fill="#979a31" d="M 234.5,167.5 C 237.215,169.902 239.715,172.568 242,175.5C 242.667,176.167 242.667,176.833 242,177.5C 238.962,174.631 236.129,171.631 233.5,168.5C 233.5,167.833 233.833,167.5 234.5,167.5 Z"/></g>
<g><path style="opacity:1" fill="#026780" d="M 38.5,154.5 C 52.525,154.257 66.525,154.591 80.5,155.5C 79.8333,156.833 78.8333,157.833 77.5,158.5C 64.5224,159.378 51.5224,159.711 38.5,159.5C 38.5,157.833 38.5,156.167 38.5,154.5 Z"/></g>
<g><path style="opacity:1" fill="#8e1615" d="M 174.5,163.5 C 173.29,163.932 172.29,164.599 171.5,165.5C 167.833,165.5 164.167,165.5 160.5,165.5C 160.286,167.144 160.62,168.644 161.5,170C 164.482,170.498 167.482,170.665 170.5,170.5C 176.145,172.853 175.811,173.853 169.5,173.5C 156.5,172.833 143.5,172.167 130.5,171.5C 135.107,170.446 139.773,169.779 144.5,169.5C 144.5,168.5 144.5,167.5 144.5,166.5C 128.409,166.35 113.076,163.016 98.5,156.5C 97.5,154.833 96.1667,153.5 94.5,152.5C 92.2947,150.637 90.9613,148.303 90.5,145.5C 94.3257,145.797 97.3257,147.63 99.5,151C 107.269,155.487 115.602,157.154 124.5,156C 135.003,151.288 146.003,148.955 157.5,149C 163.854,150.064 169.854,152.23 175.5,155.5C 159.817,156.568 144.151,156.734 128.5,156C 143.745,158.68 159.078,159.18 174.5,157.5C 175.833,157.833 177.167,158.167 178.5,158.5C 177.143,160.186 175.81,161.852 174.5,163.5 Z"/></g>
<g><path style="opacity:1" fill="#04657d" d="M 223.5,152.5 C 235.829,153.709 248.162,153.709 260.5,152.5C 260.698,157.75 260.031,162.75 258.5,167.5C 249.998,168.034 241.664,167.367 233.5,165.5C 230.167,161.167 226.833,156.833 223.5,152.5 Z"/></g>
<g><path style="opacity:1" fill="#0e566b" d="M 185.5,161.5 C 184.022,161.762 182.689,161.429 181.5,160.5C 182.882,158.451 184.548,156.785 186.5,155.5C 189.751,153.39 193.418,152.056 197.5,151.5C 198.833,151.667 200.167,151.833 201.5,152C 201.957,152.414 202.291,152.914 202.5,153.5C 201.076,155.718 199.076,157.218 196.5,158C 192.668,158.89 189.001,160.056 185.5,161.5 Z"/></g>
<g><path style="opacity:1" fill="#1c2328" d="M 87.5,144.5 C 90.1667,144.5 92.8333,144.5 95.5,144.5C 96.2623,146.262 97.5956,147.262 99.5,147.5C 104.27,152.537 110.27,154.87 117.5,154.5C 119.833,154.333 122.167,154.167 124.5,154C 129.02,151.993 133.687,150.493 138.5,149.5C 141.713,149.81 144.713,149.477 147.5,148.5C 150.684,146.586 154.351,145.92 158.5,146.5C 158.953,147.458 159.619,148.292 160.5,149C 167.808,149.77 174.641,151.936 181,155.5C 182.303,155.022 183.469,154.355 184.5,153.5C 184.5,154.833 185.167,155.5 186.5,155.5C 184.548,156.785 182.882,158.451 181.5,160.5C 182.689,161.429 184.022,161.762 185.5,161.5C 182.353,162.74 179.02,163.74 175.5,164.5C 174.893,164.376 174.56,164.043 174.5,163.5C 175.81,161.852 177.143,160.186 178.5,158.5C 177.167,158.167 175.833,157.833 174.5,157.5C 159.078,159.18 143.745,158.68 128.5,156C 144.151,156.734 159.817,156.568 175.5,155.5C 169.854,152.23 163.854,150.064 157.5,149C 146.003,148.955 135.003,151.288 124.5,156C 115.602,157.154 107.269,155.487 99.5,151C 97.3257,147.63 94.3257,145.797 90.5,145.5C 90.9613,148.303 92.2947,150.637 94.5,152.5C 94.1667,152.5 93.8333,152.5 93.5,152.5C 91.1394,150.806 89.1394,148.806 87.5,146.5C 87.5,145.833 87.5,145.167 87.5,144.5 Z"/></g>
<g><path style="opacity:1" fill="#ecc91a" d="M 180.5,118.5 C 181.167,118.5 181.833,118.5 182.5,118.5C 187.13,123.631 191.963,128.631 197,133.5C 197.192,131.423 197.692,129.423 198.5,127.5C 199.855,128.188 200.855,129.188 201.5,130.5C 204.453,134.625 207.619,138.625 211,142.5C 210.805,140.874 210.805,139.207 211,137.5C 215.185,142.571 219.352,147.571 223.5,152.5C 226.833,156.833 230.167,161.167 233.5,165.5C 233.833,166.167 234.167,166.833 234.5,167.5C 233.833,167.5 233.5,167.833 233.5,168.5C 227.869,163.37 222.369,158.036 217,152.5C 216.798,154.256 216.298,155.922 215.5,157.5C 211.206,151.871 206.539,146.537 201.5,141.5C 200.571,142.689 200.238,144.022 200.5,145.5C 193.069,137.069 186.403,128.069 180.5,118.5 Z"/></g>
<g><path style="opacity:1" fill="#255563" d="M 136.5,136.5 C 138.379,136.393 138.712,136.893 137.5,138C 138.793,138.49 140.127,138.657 141.5,138.5C 140.586,141.728 140.253,145.061 140.5,148.5C 142.833,148.5 145.167,148.5 147.5,148.5C 144.713,149.477 141.713,149.81 138.5,149.5C 139.131,144.959 138.131,140.959 135.5,137.5C 135.624,136.893 135.957,136.56 136.5,136.5 Z"/></g>
<g><path style="opacity:1" fill="#96822c" d="M 94.5,138.5 C 95.2679,139.263 95.7679,140.263 96,141.5C 96.3826,140.944 96.8826,140.611 97.5,140.5C 96.8333,141.833 96.1667,143.167 95.5,144.5C 92.8333,144.5 90.1667,144.5 87.5,144.5C 87.5,143.167 87.5,141.833 87.5,140.5C 88.6603,143.133 90.6603,143.966 93.5,143C 94.3802,141.644 94.7135,140.144 94.5,138.5 Z"/></g>
<g><path style="opacity:1" fill="#838383" d="M 134.5,119.5 C 138.696,125.235 142.363,131.235 145.5,137.5C 147.249,139.928 148.582,142.594 149.5,145.5C 151.436,142.618 153.602,139.951 156,137.5C 157.301,137.639 158.134,138.305 158.5,139.5C 158.5,141.833 158.5,144.167 158.5,146.5C 154.351,145.92 150.684,146.586 147.5,148.5C 145.167,148.5 142.833,148.5 140.5,148.5C 140.253,145.061 140.586,141.728 141.5,138.5C 142.573,137.749 142.74,136.749 142,135.5C 140.259,134.242 138.426,133.242 136.5,132.5C 134.183,131.058 132.016,131.392 130,133.5C 125.411,131.668 125.578,130.334 130.5,129.5C 130.574,125.839 129.574,125.172 127.5,127.5C 126.614,126.675 126.281,125.675 126.5,124.5C 127.708,123.766 129.041,123.433 130.5,123.5C 130.167,120.5 131.5,119.167 134.5,119.5 Z"/></g>
<g><path style="opacity:1" fill="#edcb1c" d="M 125.5,121.5 C 118.459,128.881 112.126,136.881 106.5,145.5C 105.719,144.271 105.219,142.938 105,141.5C 102.96,143.37 101.127,145.37 99.5,147.5C 97.5956,147.262 96.2623,146.262 95.5,144.5C 96.1667,143.167 96.8333,141.833 97.5,140.5C 100.809,136.185 104.143,131.852 107.5,127.5C 108.308,129.423 108.808,131.423 109,133.5C 113.395,128.936 117.895,124.602 122.5,120.5C 123.895,119.185 124.895,119.519 125.5,121.5 Z"/></g>
<g><path style="opacity:1" fill="#060b0e" d="M 136.5,132.5 C 138.426,133.242 140.259,134.242 142,135.5C 142.74,136.749 142.573,137.749 141.5,138.5C 140.127,138.657 138.793,138.49 137.5,138C 138.712,136.893 138.379,136.393 136.5,136.5C 137.833,135.167 137.833,133.833 136.5,132.5 Z"/></g>
<g><path style="opacity:1" fill="#d22f27" d="M 94.5,138.5 C 94.7135,140.144 94.3802,141.644 93.5,143C 90.6603,143.966 88.6603,143.133 87.5,140.5C 87.4528,137.427 88.6194,135.094 91,133.5C 93.54,134.207 94.7067,135.873 94.5,138.5 Z"/></g>
<g><path style="opacity:1" fill="#141313" d="M 163.5,120.5 C 160.76,124.584 158.426,128.918 156.5,133.5C 158.192,134.201 159.858,133.867 161.5,132.5C 161.561,134.592 162.561,136.092 164.5,137C 162.63,138.135 160.63,138.968 158.5,139.5C 158.134,138.305 157.301,137.639 156,137.5C 153.602,139.951 151.436,142.618 149.5,145.5C 148.582,142.594 147.249,139.928 145.5,137.5C 146.609,137.557 147.609,137.89 148.5,138.5C 148.709,139.922 149.209,141.255 150,142.5C 150.333,142.167 150.667,141.833 151,141.5C 154.02,135.071 157.186,128.737 160.5,122.5C 161.222,121.449 162.222,120.782 163.5,120.5 Z"/></g>
<g><path style="opacity:1" fill="#0482a1" d="M 259.5,127.5 C 261.663,135.643 261.997,143.976 260.5,152.5C 248.162,153.709 235.829,153.709 223.5,152.5C 219.352,147.571 215.185,142.571 211,137.5C 210.805,139.207 210.805,140.874 211,142.5C 207.619,138.625 204.453,134.625 201.5,130.5C 203.482,130.995 205.482,131.495 207.5,132C 224.83,132.5 242.163,132.667 259.5,132.5C 259.5,130.833 259.5,129.167 259.5,127.5 Z"/></g>
<g><path style="opacity:1" fill="#0e1215" d="M 173.5,130.5 C 175.077,132.994 174.41,134.827 171.5,136C 169.272,136.82 167.272,136.487 165.5,135C 166.381,134.292 167.047,133.458 167.5,132.5C 169.773,131.265 171.606,131.598 173,133.5C 173.483,132.552 173.649,131.552 173.5,130.5 Z"/></g>
<g><path style="opacity:1" fill="#181e22" d="M 126.5,124.5 C 126.281,125.675 126.614,126.675 127.5,127.5C 129.574,125.172 130.574,125.839 130.5,129.5C 125.578,130.334 125.411,131.668 130,133.5C 132.016,131.392 134.183,131.058 136.5,132.5C 133.477,132.105 132.477,133.105 133.5,135.5C 131.235,136.647 128.902,136.814 126.5,136C 125.196,135.196 124.529,134.029 124.5,132.5C 124.964,129.651 125.631,126.984 126.5,124.5 Z"/></g>
<g><path style="opacity:1" fill="#171f23" d="M 173.5,120.5 C 173.5,123.833 173.5,127.167 173.5,130.5C 171.958,129.699 170.292,129.366 168.5,129.5C 168.281,125.473 169.448,124.806 172,127.5C 172.613,125.505 172.113,123.838 170.5,122.5C 171.5,121.833 172.5,121.167 173.5,120.5 Z"/></g>
<g><path style="opacity:1" fill="#1e1915" d="M 134.5,119.5 C 136.017,119.511 137.184,120.177 138,121.5C 141.553,126.319 144.053,131.653 145.5,137.5C 142.363,131.235 138.696,125.235 134.5,119.5 Z"/></g>
<g><path style="opacity:1" fill="#077c9a" d="M 125.5,121.5 C 125.833,121.5 126.167,121.5 126.5,121.5C 126.5,122.5 126.5,123.5 126.5,124.5C 125.631,126.984 124.964,129.651 124.5,132.5C 124.529,134.029 125.196,135.196 126.5,136C 128.902,136.814 131.235,136.647 133.5,135.5C 132.477,133.105 133.477,132.105 136.5,132.5C 137.833,133.833 137.833,135.167 136.5,136.5C 135.957,136.56 135.624,136.893 135.5,137.5C 138.131,140.959 139.131,144.959 138.5,149.5C 133.687,150.493 129.02,151.993 124.5,154C 122.167,154.167 119.833,154.333 117.5,154.5C 110.27,154.87 104.27,152.537 99.5,147.5C 101.127,145.37 102.96,143.37 105,141.5C 105.219,142.938 105.719,144.271 106.5,145.5C 112.126,136.881 118.459,128.881 125.5,121.5 Z"/></g>
<g><path style="opacity:1" fill="#553c29" d="M 160.5,122.5 C 157.186,128.737 154.02,135.071 151,141.5C 150.667,141.833 150.333,142.167 150,142.5C 149.209,141.255 148.709,139.922 148.5,138.5C 148.5,134.833 148.5,131.167 148.5,127.5C 150.338,125.058 152.338,122.558 154.5,120C 155.793,119.51 157.127,119.343 158.5,119.5C 159.117,119.389 159.617,119.056 160,118.5C 160.49,119.793 160.657,121.127 160.5,122.5 Z"/></g>
<g><path style="opacity:1" fill="#735433" d="M 144.5,117.5 C 145.117,117.611 145.617,117.944 146,118.5C 146.849,121.521 147.683,124.521 148.5,127.5C 148.5,131.167 148.5,134.833 148.5,138.5C 147.609,137.89 146.609,137.557 145.5,137.5C 144.053,131.653 141.553,126.319 138,121.5C 137.184,120.177 136.017,119.511 134.5,119.5C 133.2,118.399 132.7,117.066 133,115.5C 134.577,115.472 136.244,114.805 138,113.5C 140.542,114.205 142.708,115.539 144.5,117.5 Z"/></g>
<g><path style="opacity:1" fill="#7e7e7e" d="M 170.5,122.5 C 172.113,123.838 172.613,125.505 172,127.5C 169.448,124.806 168.281,125.473 168.5,129.5C 170.292,129.366 171.958,129.699 173.5,130.5C 173.649,131.552 173.483,132.552 173,133.5C 171.606,131.598 169.773,131.265 167.5,132.5C 165.5,132.5 163.5,132.5 161.5,132.5C 159.858,133.867 158.192,134.201 156.5,133.5C 158.426,128.918 160.76,124.584 163.5,120.5C 165.166,119.334 166.833,119.334 168.5,120.5C 168.062,121.506 167.396,121.506 166.5,120.5C 165.386,121.723 165.219,123.056 166,124.5C 167.11,122.963 168.61,122.297 170.5,122.5 Z"/></g>
<g><path style="opacity:1" fill="#07819f" d="M 180.5,118.5 C 186.403,128.069 193.069,137.069 200.5,145.5C 200.586,146.496 200.252,147.329 199.5,148C 196.203,148.204 193.203,149.037 190.5,150.5C 188.181,150.992 186.181,151.992 184.5,153.5C 183.469,154.355 182.303,155.022 181,155.5C 174.641,151.936 167.808,149.77 160.5,149C 159.619,148.292 158.953,147.458 158.5,146.5C 158.5,144.167 158.5,141.833 158.5,139.5C 160.63,138.968 162.63,138.135 164.5,137C 162.561,136.092 161.561,134.592 161.5,132.5C 163.5,132.5 165.5,132.5 167.5,132.5C 167.047,133.458 166.381,134.292 165.5,135C 167.272,136.487 169.272,136.82 171.5,136C 174.41,134.827 175.077,132.994 173.5,130.5C 173.5,127.167 173.5,123.833 173.5,120.5C 175.833,119.833 178.167,119.167 180.5,118.5 Z"/></g>
<g><path style="opacity:1" fill="#058bab" d="M 41.5,117.5 C 41.5,118.833 41.5,120.167 41.5,121.5C 63.477,122.801 85.477,122.801 107.5,121.5C 108.243,120.818 108.909,120.151 109.5,119.5C 111.415,119.784 113.081,119.451 114.5,118.5C 117.553,118.111 120.22,118.777 122.5,120.5C 117.895,124.602 113.395,128.936 109,133.5C 108.808,131.423 108.308,129.423 107.5,127.5C 104.143,131.852 100.809,136.185 97.5,140.5C 96.8826,140.611 96.3826,140.944 96,141.5C 95.7679,140.263 95.2679,139.263 94.5,138.5C 94.7067,135.873 93.54,134.207 91,133.5C 88.6194,135.094 87.4528,137.427 87.5,140.5C 87.5,141.833 87.5,143.167 87.5,144.5C 87.5,145.167 87.5,145.833 87.5,146.5C 85.4083,149.681 83.075,152.681 80.5,155.5C 66.525,154.591 52.525,154.257 38.5,154.5C 36.6725,141.836 37.6725,129.503 41.5,117.5 Z"/></g>
<g><path style="opacity:1" fill="#32241c" d="M 166.5,112.5 C 167.387,116.04 168.721,119.373 170.5,122.5C 168.61,122.297 167.11,122.963 166,124.5C 165.219,123.056 165.386,121.723 166.5,120.5C 167.396,121.506 168.062,121.506 168.5,120.5C 166.833,119.334 165.166,119.334 163.5,120.5C 162.222,120.782 161.222,121.449 160.5,122.5C 160.657,121.127 160.49,119.793 160,118.5C 159.617,119.056 159.117,119.389 158.5,119.5C 157.5,118.833 156.5,118.167 155.5,117.5C 157.527,117.662 159.527,117.495 161.5,117C 162.651,114.8 164.318,113.3 166.5,112.5 Z"/></g>
<g><path style="opacity:1" fill="#0c171c" d="M 204.5,114.5 C 204.082,115.222 203.416,115.722 202.5,116C 198.748,116.24 195.081,116.74 191.5,117.5C 191.281,116.325 191.614,115.325 192.5,114.5C 196.482,115.671 200.482,115.671 204.5,114.5 Z"/></g>
<g><path style="opacity:1" fill="#3c2e1c" d="M 100.5,108.5 C 99.2842,110.451 97.6175,111.951 95.5,113C 100.128,116.322 104.795,116.322 109.5,113C 111.037,111.293 112.704,109.793 114.5,108.5C 113.073,111.764 110.739,114.264 107.5,116C 109.321,118.137 111.654,118.97 114.5,118.5C 113.081,119.451 111.415,119.784 109.5,119.5C 108.373,118.878 107.373,118.045 106.5,117C 103.167,116.667 99.8333,116.333 96.5,116C 95.8333,115.333 95.1667,114.667 94.5,114C 90.8333,113.667 87.1667,113.333 83.5,113C 82.944,112.617 82.6107,112.117 82.5,111.5C 88.9859,113.273 94.9859,112.273 100.5,108.5 Z"/></g>
<g><path style="opacity:1" fill="#624632" d="M 173.5,120.5 C 172.5,121.167 171.5,121.833 170.5,122.5C 168.721,119.373 167.387,116.04 166.5,112.5C 168.716,113.203 170.549,114.536 172,116.5C 172.333,114.953 171.833,113.62 170.5,112.5C 170.833,111.5 171.5,110.833 172.5,110.5C 174.984,112.483 177.317,114.65 179.5,117C 176.981,117.586 174.981,118.753 173.5,120.5 Z"/></g>
<g><path style="opacity:1" fill="#16191c" d="M 214.5,112.5 C 213.504,113.665 212.171,114.332 210.5,114.5C 208.432,113.347 206.432,113.347 204.5,114.5C 203.969,112.376 202.635,110.876 200.5,110C 202.598,110.032 204.598,110.699 206.5,112C 209.146,112.497 211.813,112.664 214.5,112.5 Z"/></g>
<g><path style="opacity:1" fill="#322314" d="M 132.5,105.5 C 132.833,105.5 133.167,105.5 133.5,105.5C 137.869,108.869 141.536,112.869 144.5,117.5C 142.708,115.539 140.542,114.205 138,113.5C 136.244,114.805 134.577,115.472 133,115.5C 132.7,117.066 133.2,118.399 134.5,119.5C 131.5,119.167 130.167,120.5 130.5,123.5C 129.041,123.433 127.708,123.766 126.5,124.5C 126.5,123.5 126.5,122.5 126.5,121.5C 127.15,121.804 127.817,122.137 128.5,122.5C 129.973,119.72 131.307,116.887 132.5,114C 130.633,113.289 129.133,113.789 128,115.5C 128.526,113.773 128.359,112.106 127.5,110.5C 130.977,112.258 134.643,112.758 138.5,112C 136.137,109.82 133.47,108.153 130.5,107C 131.416,106.722 132.082,106.222 132.5,105.5 Z"/></g>
<g><path style="opacity:1" fill="#6e5031" d="M 127.5,110.5 C 128.359,112.106 128.526,113.773 128,115.5C 129.133,113.789 130.633,113.289 132.5,114C 131.307,116.887 129.973,119.72 128.5,122.5C 127.817,122.137 127.15,121.804 126.5,121.5C 126.167,121.5 125.833,121.5 125.5,121.5C 124.895,119.519 123.895,119.185 122.5,120.5C 120.22,118.777 117.553,118.111 114.5,118.5C 111.654,118.97 109.321,118.137 107.5,116C 110.739,114.264 113.073,111.764 114.5,108.5C 118.633,107.154 122.133,108.154 125,111.5C 125.671,110.748 126.504,110.414 127.5,110.5 Z"/></g>
<g><path style="opacity:1" fill="#212120" d="M 62.5,106.5 C 69.0326,108.206 75.6993,108.872 82.5,108.5C 82.5,109.5 82.5,110.5 82.5,111.5C 77.7935,109.8 72.7935,108.967 67.5,109C 65.5087,108.626 63.842,107.793 62.5,106.5 Z"/></g>
<g><path style="opacity:1" fill="#624732" d="M 214.5,112.5 C 211.813,112.664 209.146,112.497 206.5,112C 204.598,110.699 202.598,110.032 200.5,110C 202.635,110.876 203.969,112.376 204.5,114.5C 200.482,115.671 196.482,115.671 192.5,114.5C 191.614,115.325 191.281,116.325 191.5,117.5C 189.458,119.591 187.125,119.924 184.5,118.5C 180.436,115.946 176.769,112.779 173.5,109C 176.188,108.608 178.855,108.108 181.5,107.5C 183.029,107.529 184.196,108.196 185,109.5C 185.617,108.551 185.451,107.718 184.5,107C 191.775,105.008 199.109,104.342 206.5,105C 209.596,107.215 212.929,108.881 216.5,110C 215.619,110.708 214.953,111.542 214.5,112.5 Z"/></g>
<g><path style="opacity:1" fill="#291f19" d="M 201.5,101.5 C 206.438,102.392 211.438,102.726 216.5,102.5C 213.977,103.384 211.31,104.218 208.5,105C 217.56,108.593 226.894,109.427 236.5,107.5C 229.362,109.645 222.029,111.312 214.5,112.5C 214.953,111.542 215.619,110.708 216.5,110C 212.929,108.881 209.596,107.215 206.5,105C 199.109,104.342 191.775,105.008 184.5,107C 185.451,107.718 185.617,108.551 185,109.5C 184.196,108.196 183.029,107.529 181.5,107.5C 178.855,108.108 176.188,108.608 173.5,109C 176.769,112.779 180.436,115.946 184.5,118.5C 183.833,118.5 183.167,118.5 182.5,118.5C 181.833,118.5 181.167,118.5 180.5,118.5C 178.167,119.167 175.833,119.833 173.5,120.5C 174.981,118.753 176.981,117.586 179.5,117C 177.317,114.65 174.984,112.483 172.5,110.5C 171.5,110.833 170.833,111.5 170.5,112.5C 171.833,113.62 172.333,114.953 172,116.5C 170.549,114.536 168.716,113.203 166.5,112.5C 174.13,107.235 182.797,104.402 192.5,104C 191.112,103.111 191.278,102.611 193,102.5C 196.121,103.536 199.287,103.703 202.5,103C 201.944,102.617 201.611,102.117 201.5,101.5 Z"/></g>
<g><path style="opacity:1" fill="#694d30" d="M 111.5,98.5 C 116.992,99.2199 122.325,100.553 127.5,102.5C 129.354,103.241 131.021,104.241 132.5,105.5C 132.082,106.222 131.416,106.722 130.5,107C 133.47,108.153 136.137,109.82 138.5,112C 134.643,112.758 130.977,112.258 127.5,110.5C 127.5,109.5 127.5,108.5 127.5,107.5C 124.351,107.789 121.351,107.289 118.5,106C 118.833,105.667 119.167,105.333 119.5,105C 115.167,104.667 110.833,104.333 106.5,104C 108.844,103.163 110.844,101.829 112.5,100C 111.5,99.6667 110.5,99.3333 109.5,99C 110.094,98.5357 110.761,98.369 111.5,98.5 Z"/></g>
<g><path style="opacity:1" fill="#1a130d" d="M 238.5,102.5 C 238.586,103.496 238.252,104.329 237.5,105C 232.477,107.161 227.81,106.661 223.5,103.5C 228.751,105.144 233.751,104.81 238.5,102.5 Z"/></g>
<g><path style="opacity:1" fill="#755534" d="M 114.5,108.5 C 112.704,109.793 111.037,111.293 109.5,113C 104.795,116.322 100.128,116.322 95.5,113C 97.6175,111.951 99.2842,110.451 100.5,108.5C 101.857,107.315 103.357,106.315 105,105.5C 108.641,105.728 111.808,106.728 114.5,108.5 Z"/></g>
<g><path style="opacity:1" fill="#402d1b" d="M 108.5,97.5 C 109.791,97.2627 110.791,97.596 111.5,98.5C 110.761,98.369 110.094,98.5357 109.5,99C 110.5,99.3333 111.5,99.6667 112.5,100C 110.844,101.829 108.844,103.163 106.5,104C 110.833,104.333 115.167,104.667 119.5,105C 119.167,105.333 118.833,105.667 118.5,106C 121.351,107.289 124.351,107.789 127.5,107.5C 127.5,108.5 127.5,109.5 127.5,110.5C 126.504,110.414 125.671,110.748 125,111.5C 122.133,108.154 118.633,107.154 114.5,108.5C 111.808,106.728 108.641,105.728 105,105.5C 103.357,106.315 101.857,107.315 100.5,108.5C 100.511,106.983 101.177,105.816 102.5,105C 95.188,105.55 87.8546,105.05 80.5,103.5C 76.5232,104.482 72.5232,105.482 68.5,106.5C 67.8333,106.333 67.1667,106.167 66.5,106C 69.5597,105.152 72.5597,104.152 75.5,103C 72.2855,102.726 69.6188,101.393 67.5,99C 65.1902,98.5034 62.8568,98.3367 60.5,98.5C 60.6495,99.552 60.4828,100.552 60,101.5C 58.2298,99.5819 56.0631,99.0819 53.5,100C 54.3805,100.708 55.0472,101.542 55.5,102.5C 53.2512,101.92 51.5846,100.587 50.5,98.5C 56.8388,97.404 63.1722,97.404 69.5,98.5C 71.0595,100.695 73.2261,101.695 76,101.5C 79.8606,100.724 83.6939,100.224 87.5,100C 85.6079,100.973 83.6079,101.64 81.5,102C 86.9038,104.061 92.2371,103.895 97.5,101.5C 98.6956,101.846 98.6956,102.346 97.5,103C 101.738,103.823 105.738,103.156 109.5,101C 103.16,100.399 96.8264,99.7326 90.5,99C 96.6807,98.8276 102.681,98.3276 108.5,97.5 Z"/></g>
<g><path style="opacity:1" fill="#694d34" d="M 100.5,108.5 C 94.9859,112.273 88.9859,113.273 82.5,111.5C 82.5,110.5 82.5,109.5 82.5,108.5C 75.6993,108.872 69.0326,108.206 62.5,106.5C 59.6689,105.921 57.3356,104.588 55.5,102.5C 55.0472,101.542 54.3805,100.708 53.5,100C 56.0631,99.0819 58.2298,99.5819 60,101.5C 60.4828,100.552 60.6495,99.552 60.5,98.5C 62.8568,98.3367 65.1902,98.5034 67.5,99C 69.6188,101.393 72.2855,102.726 75.5,103C 72.5597,104.152 69.5597,105.152 66.5,106C 67.1667,106.167 67.8333,106.333 68.5,106.5C 72.5232,105.482 76.5232,104.482 80.5,103.5C 87.8546,105.05 95.188,105.55 102.5,105C 101.177,105.816 100.511,106.983 100.5,108.5 Z"/></g>
<g><path style="opacity:1" fill="#03a1ca" d="M 259.5,127.5 C 259.5,129.167 259.5,130.833 259.5,132.5C 242.163,132.667 224.83,132.5 207.5,132C 205.482,131.495 203.482,130.995 201.5,130.5C 200.855,129.188 199.855,128.188 198.5,127.5C 197.692,129.423 197.192,131.423 197,133.5C 191.963,128.631 187.13,123.631 182.5,118.5C 183.167,118.5 183.833,118.5 184.5,118.5C 187.125,119.924 189.458,119.591 191.5,117.5C 195.081,116.74 198.748,116.24 202.5,116C 203.416,115.722 204.082,115.222 204.5,114.5C 206.432,113.347 208.432,113.347 210.5,114.5C 212.171,114.332 213.504,113.665 214.5,112.5C 222.029,111.312 229.362,109.645 236.5,107.5C 240.976,106.429 244.643,104.096 247.5,100.5C 248.458,100.047 249.292,99.3805 250,98.5C 255.666,107.332 258.833,116.999 259.5,127.5 Z"/></g>
<g><path style="opacity:1" fill="#121313" d="M 247.5,100.5 C 244.643,104.096 240.976,106.429 236.5,107.5C 239.989,104.92 243.656,102.587 247.5,100.5 Z"/></g>
<g><path style="opacity:1" fill="#04a6cf" d="M 50.5,98.5 C 51.5846,100.587 53.2512,101.92 55.5,102.5C 57.3356,104.588 59.6689,105.921 62.5,106.5C 63.842,107.793 65.5087,108.626 67.5,109C 72.7935,108.967 77.7935,109.8 82.5,111.5C 82.6107,112.117 82.944,112.617 83.5,113C 87.1667,113.333 90.8333,113.667 94.5,114C 95.1667,114.667 95.8333,115.333 96.5,116C 99.8333,116.333 103.167,116.667 106.5,117C 107.373,118.045 108.373,118.878 109.5,119.5C 108.909,120.151 108.243,120.818 107.5,121.5C 85.477,122.801 63.477,122.801 41.5,121.5C 41.5,120.167 41.5,118.833 41.5,117.5C 42.7644,111.209 44.931,105.209 48,99.5C 48.6708,98.7476 49.5041,98.4142 50.5,98.5 Z"/></g>
<g><path style="opacity:1" fill="#604631" d="M 214.5,95.5 C 218.833,95.5 223.167,95.5 227.5,95.5C 228.952,96.3019 230.618,96.8019 232.5,97C 230.277,99.2227 227.611,100.556 224.5,101C 228.899,99.5596 233.566,98.7263 238.5,98.5C 238.5,99.8333 238.5,101.167 238.5,102.5C 233.751,104.81 228.751,105.144 223.5,103.5C 211.554,97.2639 198.887,96.0973 185.5,100C 186.5,100.5 187.5,101 188.5,101.5C 192.831,98.916 197.164,98.916 201.5,101.5C 201.611,102.117 201.944,102.617 202.5,103C 199.287,103.703 196.121,103.536 193,102.5C 191.278,102.611 191.112,103.111 192.5,104C 182.797,104.402 174.13,107.235 166.5,112.5C 164.318,113.3 162.651,114.8 161.5,117C 159.527,117.495 157.527,117.662 155.5,117.5C 160.962,109.453 168.295,104.619 177.5,103C 176.5,102.667 175.5,102.333 174.5,102C 179.838,99.2484 185.505,97.5817 191.5,97C 202.843,96.6979 214.176,96.6979 225.5,97C 221.644,96.8227 217.977,96.3227 214.5,95.5 Z"/></g>
<g><path style="opacity:1" fill="#6b4f36" d="M 216.5,102.5 C 211.438,102.726 206.438,102.392 201.5,101.5C 201.389,100.883 201.056,100.383 200.5,100C 206.239,99.058 211.573,99.8914 216.5,102.5 Z"/></g>
<g><path style="opacity:1" fill="#231a13" d="M 227.5,95.5 C 229.833,95.5 232.167,95.5 234.5,95.5C 237.675,96.4287 241.009,97.262 244.5,98C 242.866,98.4935 241.199,98.6602 239.5,98.5C 239.768,100.099 239.434,101.432 238.5,102.5C 238.5,101.167 238.5,99.8333 238.5,98.5C 233.566,98.7263 228.899,99.5596 224.5,101C 227.611,100.556 230.277,99.2227 232.5,97C 230.618,96.8019 228.952,96.3019 227.5,95.5 Z"/></g>
<g><path style="opacity:1" fill="#211912" d="M 223.5,103.5 C 221.236,102.781 218.903,102.448 216.5,102.5C 211.573,99.8914 206.239,99.058 200.5,100C 201.056,100.383 201.389,100.883 201.5,101.5C 197.164,98.916 192.831,98.916 188.5,101.5C 187.5,101 186.5,100.5 185.5,100C 198.887,96.0973 211.554,97.2639 223.5,103.5 Z"/></g>
<g><path style="opacity:1" fill="#3d2f17" d="M 270.5,202.5 C 271.5,202.5 272.5,202.5 273.5,202.5C 272.911,206.297 271.911,206.297 270.5,202.5 Z"/></g>
<g><path style="opacity:1" fill="#1f1609" d="M 35.5,202.5 C 36.1894,201.226 37.0228,201.226 38,202.5C 39.0468,204.762 40.2135,206.929 41.5,209C 41.1667,209.5 40.8333,210 40.5,210.5C 39.6143,209.675 39.281,208.675 39.5,207.5C 36.1485,208.008 33.1485,209.342 30.5,211.5C 29.7132,210.758 29.0465,209.925 28.5,209C 31.6237,208.521 34.4571,207.354 37,205.5C 37.5847,204.002 37.0847,203.002 35.5,202.5 Z"/></g>
<g><path style="opacity:1" fill="#8f8e8d" d="M 152.5,203.5 C 154.652,204.077 154.985,205.244 153.5,207C 150.647,208.43 147.647,209.263 144.5,209.5C 144.33,208.178 144.663,207.011 145.5,206C 148.104,205.61 150.438,204.776 152.5,203.5 Z"/></g>
<g><path style="opacity:1" fill="#e3bc52" d="M 223.5,212.5 C 224.315,213.837 225.482,214.837 227,215.5C 227.667,216.167 227.667,216.833 227,217.5C 207.65,237.015 184.15,247.348 156.5,248.5C 156.433,247.041 156.766,245.708 157.5,244.5C 157.229,242.62 157.896,241.287 159.5,240.5C 160.5,240.167 161.167,239.5 161.5,238.5C 161.783,237.711 162.283,237.044 163,236.5C 163.192,238.577 163.692,240.577 164.5,242.5C 165.251,241.624 165.751,240.624 166,239.5C 167.134,242 168.968,243.167 171.5,243C 168.941,241.677 168.275,239.843 169.5,237.5C 170.55,239.873 172.383,240.873 175,240.5C 177.547,240.238 180.047,239.738 182.5,239C 184.648,236.925 184.982,234.592 183.5,232C 180.469,231.505 177.469,231.671 174.5,232.5C 174.239,240.972 173.073,241.305 171,233.5C 170.333,234.167 169.667,234.833 169,235.5C 167.301,234.594 165.467,234.261 163.5,234.5C 162.333,232.959 161,231.625 159.5,230.5C 173.397,228.645 186.064,223.645 197.5,215.5C 202.174,211.825 206.84,208.158 211.5,204.5C 215.765,206.765 219.765,209.432 223.5,212.5 Z"/></g>
<g><path style="opacity:1" fill="#1f190e" d="M 259.5,206.5 C 259.962,204.243 260.962,202.243 262.5,200.5C 264.936,201.501 264.936,202.668 262.5,204C 264.963,206.07 267.629,207.903 270.5,209.5C 270.192,210.308 269.692,210.975 269,211.5C 266.174,209.171 263.008,207.504 259.5,206.5 Z"/></g>
<g><path style="opacity:1" fill="#c58b16" d="M 52.5,204.5 C 69.5822,228.378 92.2488,244.378 120.5,252.5C 119.178,252.33 118.011,252.663 117,253.5C 116.955,256.334 116.121,258.834 114.5,261C 115.056,261.383 115.389,261.883 115.5,262.5C 116.791,262.263 117.791,262.596 118.5,263.5C 118.205,265.735 118.539,267.735 119.5,269.5C 119.5,270.167 119.167,270.5 118.5,270.5C 116.622,271.934 115.955,273.601 116.5,275.5C 114.307,277.522 113.307,280.189 113.5,283.5C 81.417,275.641 55.0836,258.974 34.5,233.5C 36.2378,231.079 37.5711,228.412 38.5,225.5C 39.1667,225.833 39.8333,226.167 40.5,226.5C 40.8333,227.5 41.5,228.167 42.5,228.5C 42.5106,226.983 43.1772,225.816 44.5,225C 46.5,223.667 48.5,222.333 50.5,221C 49.3181,219.232 47.9848,219.065 46.5,220.5C 47.9513,214.936 49.9513,209.603 52.5,204.5 Z"/></g>
<g><path style="opacity:1" fill="#3b2e15" d="M 259.5,206.5 C 259.657,207.873 259.49,209.207 259,210.5C 256.981,208.876 257.148,207.543 259.5,206.5 Z"/></g>
<g><path style="opacity:1" fill="#838383" d="M 152.5,208.5 C 154.549,208.706 154.883,209.539 153.5,211C 151.167,211.667 148.833,211.667 146.5,211C 148.723,210.434 150.723,209.6 152.5,208.5 Z"/></g>
<g><path style="opacity:1" fill="#838383" d="M 143.5,213.5 C 147.846,213.334 152.179,213.501 156.5,214C 159.798,218.845 158.798,222.512 153.5,225C 142.951,226.967 139.618,223.133 143.5,213.5 Z"/></g>
<g><path style="opacity:1" fill="#251e12" d="M 207.5,214.5 C 211.691,215.262 215.358,217.096 218.5,220C 216.512,220.18 214.512,220.014 212.5,219.5C 212.657,220.873 212.49,222.207 212,223.5C 209.06,220.861 207.56,217.861 207.5,214.5 Z"/></g>
<g><path style="opacity:1" fill="#1b160d" d="M 255.5,211.5 C 258.312,213.408 261.312,215.075 264.5,216.5C 265.687,217.824 265.354,218.824 263.5,219.5C 260.662,217.248 257.662,215.248 254.5,213.5C 254.863,212.817 255.196,212.15 255.5,211.5 Z"/></g>
<g><path style="opacity:1" fill="#0c0c0c" d="M 147.5,216.5 C 151.138,215.737 152.638,217.07 152,220.5C 147.415,222.413 145.915,221.079 147.5,216.5 Z"/></g>
<g><path style="opacity:1" fill="#241a0c" d="M 39.5,221.5 C 38.8333,222.167 38.1667,222.833 37.5,223.5C 37.1961,222.85 36.8627,222.183 36.5,221.5C 37.9501,220.15 38.6168,218.484 38.5,216.5C 36.7376,216.357 35.0709,216.691 33.5,217.5C 33.1667,217.167 32.8333,216.833 32.5,216.5C 36.3829,214.195 40.3829,213.195 44.5,213.5C 42.8067,216.184 41.14,218.851 39.5,221.5 Z"/></g>
<g><path style="opacity:1" fill="#191007" d="M 96.5,218.5 C 95.9573,221.038 94.9573,223.372 93.5,225.5C 91.9826,225.511 90.8159,226.177 90,227.5C 89.6666,225.953 90.1666,224.62 91.5,223.5C 88.1028,222.647 84.9362,221.314 82,219.5C 81.7613,217.275 82.5946,216.942 84.5,218.5C 85.4287,217.311 85.762,215.978 85.5,214.5C 87.1992,214.34 88.8659,214.506 90.5,215C 91.4506,215.718 91.6172,216.551 91,217.5C 89.9887,216.663 88.8221,216.33 87.5,216.5C 87.238,217.978 87.5713,219.311 88.5,220.5C 90.943,218.945 93.6097,218.278 96.5,218.5 Z"/></g>
<g><path style="opacity:1" fill="#1a140b" d="M 203.5,219.5 C 203.897,218.475 204.563,218.308 205.5,219C 207.351,220.684 209.018,222.517 210.5,224.5C 210.167,224.833 209.833,225.167 209.5,225.5C 207.812,223.146 205.812,221.146 203.5,219.5 Z"/></g>
<g><path style="opacity:1" fill="#181006" d="M 42.5,228.5 C 41.5,228.167 40.8333,227.5 40.5,226.5C 40.8333,225.833 41.1667,225.167 41.5,224.5C 43.754,223.876 45.4206,222.543 46.5,220.5C 47.9848,219.065 49.3181,219.232 50.5,221C 48.5,222.333 46.5,223.667 44.5,225C 43.1772,225.816 42.5106,226.983 42.5,228.5 Z"/></g>
<g><path style="opacity:1" fill="#6e4f18" d="M 39.5,221.5 C 39.2852,223.179 39.9519,224.179 41.5,224.5C 41.1667,225.167 40.8333,225.833 40.5,226.5C 39.8333,226.167 39.1667,225.833 38.5,225.5C 38.1667,224.833 37.8333,224.167 37.5,223.5C 38.1667,222.833 38.8333,222.167 39.5,221.5 Z"/></g>
<g><path style="opacity:1" fill="#271f12" d="M 249.5,219.5 C 252.431,221.091 255.098,223.091 257.5,225.5C 259.636,224.528 260.803,222.861 261,220.5C 261.5,221 262,221.5 262.5,222C 261.042,224.46 259.209,226.627 257,228.5C 254.659,225.165 251.493,222.998 247.5,222C 248.381,221.292 249.047,220.458 249.5,219.5 Z"/></g>
<g><path style="opacity:1" fill="#191107" d="M 95.5,229.5 C 92.6643,229.163 91.9976,227.829 93.5,225.5C 95.1958,225.315 96.5291,224.481 97.5,223C 101.027,222.118 101.693,222.618 99.5,224.5C 100.376,225.251 101.376,225.751 102.5,226C 101.663,227.011 101.33,228.178 101.5,229.5C 99.5,229.5 97.5,229.5 95.5,229.5 Z"/></g>
<g><path style="opacity:1" fill="#996f1c" d="M 96.5,218.5 C 97.404,219.209 97.7373,220.209 97.5,221.5C 99.288,221.215 100.955,221.548 102.5,222.5C 103.188,223.855 104.188,224.855 105.5,225.5C 104.118,227.549 102.452,229.215 100.5,230.5C 98.5853,230.784 96.9187,230.451 95.5,229.5C 97.5,229.5 99.5,229.5 101.5,229.5C 101.33,228.178 101.663,227.011 102.5,226C 101.376,225.751 100.376,225.251 99.5,224.5C 101.693,222.618 101.027,222.118 97.5,223C 96.5291,224.481 95.1958,225.315 93.5,225.5C 94.9573,223.372 95.9573,221.038 96.5,218.5 Z"/></g>
<g><path style="opacity:1" fill="#221809" d="M 54.5,226.5 C 55.6266,227.122 56.6266,227.955 57.5,229C 54.8519,230.649 52.5186,232.649 50.5,235C 51.1536,236.987 52.487,238.32 54.5,239C 51.3522,239.06 49.0188,237.56 47.5,234.5C 49.9073,231.769 52.2406,229.102 54.5,226.5 Z"/></g>
<g><path style="opacity:1" fill="#bd8c28" d="M 96.5,226.5 C 98.9828,226.73 99.4828,227.397 98,228.5C 96.9701,228.164 96.4701,227.497 96.5,226.5 Z"/></g>
<g><path style="opacity:1" fill="#201a10" d="M 200.5,220.5 C 202.772,220.911 203.105,222.078 201.5,224C 202.91,228.278 204.577,228.445 206.5,224.5C 207.594,225.868 207.26,227.035 205.5,228C 203.888,228.72 202.388,228.554 201,227.5C 200.781,228.938 200.281,230.271 199.5,231.5C 197.503,230.253 195.503,229.419 193.5,229C 194.765,230.337 195.265,231.837 195,233.5C 192.086,231.37 191.253,228.704 192.5,225.5C 194.258,226.128 195.758,227.128 197,228.5C 196.805,226.874 196.805,225.207 197,223.5C 197.667,224.167 198.333,224.833 199,225.5C 199.352,223.753 199.852,222.086 200.5,220.5 Z"/></g>
<g><path style="opacity:1" fill="#25190a" d="M 105.5,225.5 C 107.028,225.517 107.528,226.184 107,227.5C 105.316,229.351 103.483,231.018 101.5,232.5C 100.702,232.043 100.369,231.376 100.5,230.5C 102.452,229.215 104.118,227.549 105.5,225.5 Z"/></g>
<g><path style="opacity:1" fill="#261f12" d="M 244.5,224.5 C 247.464,226.448 250.464,228.448 253.5,230.5C 254.61,232.566 253.944,233.399 251.5,233C 249.262,230.257 246.595,228.091 243.5,226.5C 243.863,225.817 244.196,225.15 244.5,224.5 Z"/></g>
<g><path style="opacity:1" fill="#d8a630" d="M 127.5,228.5 C 138.075,230.236 148.742,230.902 159.5,230.5C 161,231.625 162.333,232.959 163.5,234.5C 160.5,235.093 157.5,235.926 154.5,237C 155.967,239.378 156.967,241.878 157.5,244.5C 156.766,245.708 156.433,247.041 156.5,248.5C 145.712,249.992 135.045,249.326 124.5,246.5C 124.771,244.57 125.771,243.236 127.5,242.5C 129.515,240.324 131.182,237.824 132.5,235C 131.551,234.383 130.718,234.549 130,235.5C 129,237.5 128,239.5 127,241.5C 126.13,240.892 125.63,240.059 125.5,239C 129.797,235.934 129.464,233.767 124.5,232.5C 124.799,230.545 125.799,229.211 127.5,228.5 Z"/></g>
<g><path style="opacity:1" fill="#1e180e" d="M 187.5,227.5 C 188.239,227.369 188.906,227.536 189.5,228C 185.546,230.698 185.879,231.698 190.5,231C 186.596,234.297 187.262,235.297 192.5,234C 191.183,235.659 189.517,236.826 187.5,237.5C 186.651,235.106 185.651,232.773 184.5,230.5C 185.34,229.265 186.34,228.265 187.5,227.5 Z"/></g>
<g><path style="opacity:1" fill="#483211" d="M 42.5,228.5 C 44.1947,229.011 45.8614,229.678 47.5,230.5C 44.8301,232.09 43.1634,231.423 42.5,228.5 Z"/></g>
<g><path style="opacity:1" fill="#170e06" d="M 113.5,232.5 C 110.432,234.632 107.099,234.965 103.5,233.5C 105.202,230.963 107.369,228.963 110,227.5C 112.54,228.207 113.707,229.873 113.5,232.5 Z"/></g>
<g><path style="opacity:1" fill="#c48f22" d="M 108.5,229.5 C 109.5,229.5 110.5,229.5 111.5,229.5C 111.499,233.252 109.833,234.252 106.5,232.5C 107.193,231.482 107.859,230.482 108.5,229.5 Z"/></g>
<g><path style="opacity:1" fill="#1f190e" d="M 242.5,235.5 C 240.213,233.34 240.046,231.006 242,228.5C 244.128,231.63 246.628,234.463 249.5,237C 248.975,237.692 248.308,238.192 247.5,238.5C 246.185,236.684 244.685,235.017 243,233.5C 242.536,234.094 242.369,234.761 242.5,235.5 Z"/></g>
<g><path style="opacity:1" fill="#1e180f" d="M 161.5,238.5 C 157.755,237.188 157.089,237.854 159.5,240.5C 157.896,241.287 157.229,242.62 157.5,244.5C 156.967,241.878 155.967,239.378 154.5,237C 157.5,235.926 160.5,235.093 163.5,234.5C 165.467,234.261 167.301,234.594 169,235.5C 169.667,234.833 170.333,234.167 171,233.5C 173.073,241.305 174.239,240.972 174.5,232.5C 177.469,231.671 180.469,231.505 183.5,232C 184.982,234.592 184.648,236.925 182.5,239C 180.047,239.738 177.547,240.238 175,240.5C 172.383,240.873 170.55,239.873 169.5,237.5C 168.275,239.843 168.941,241.677 171.5,243C 168.968,243.167 167.134,242 166,239.5C 165.751,240.624 165.251,241.624 164.5,242.5C 163.692,240.577 163.192,238.577 163,236.5C 162.283,237.044 161.783,237.711 161.5,238.5 Z"/></g>
<g><path style="opacity:1" fill="#d9b652" d="M 179.5,232.5 C 181.346,232.222 182.68,232.889 183.5,234.5C 182.68,236.111 181.346,236.778 179.5,236.5C 179.5,235.167 179.5,233.833 179.5,232.5 Z"/></g>
<g><path style="opacity:1" fill="#181007" d="M 113.5,232.5 C 117.113,230.204 117.447,231.037 114.5,235C 117.284,235.417 119.284,234.25 120.5,231.5C 120.825,234.546 119.659,237.213 117,239.5C 115.951,237.893 114.451,237.227 112.5,237.5C 112.629,235.784 112.962,234.117 113.5,232.5 Z"/></g>
<g><path style="opacity:1" fill="#231a0e" d="M 124.5,232.5 C 129.464,233.767 129.797,235.934 125.5,239C 125.63,240.059 126.13,240.892 127,241.5C 128,239.5 129,237.5 130,235.5C 130.718,234.549 131.551,234.383 132.5,235C 131.182,237.824 129.515,240.324 127.5,242.5C 126.325,242.719 125.325,242.386 124.5,241.5C 123.631,238.237 122.297,237.904 120.5,240.5C 120.167,240.167 119.833,239.833 119.5,239.5C 120.943,236.923 122.61,234.59 124.5,232.5 Z"/></g>
<g><path style="opacity:1" fill="#c6a552" d="M 165.5,235.5 C 167.337,235.639 167.67,236.306 166.5,237.5C 165.702,237.043 165.369,236.376 165.5,235.5 Z"/></g>
<g><path style="opacity:1" fill="#161008" d="M 242.5,235.5 C 243.339,236.641 244.006,237.974 244.5,239.5C 244,239.833 243.5,240.167 243,240.5C 241.2,239.68 239.366,239.014 237.5,238.5C 237.062,237.494 236.396,237.494 235.5,238.5C 235.082,237.778 234.416,237.278 233.5,237C 233.833,236.667 234.167,236.333 234.5,236C 236.783,235.709 238.95,236.209 241,237.5C 242.03,237.164 242.53,236.497 242.5,235.5 Z"/></g>
<g><path style="opacity:1" fill="#1f170a" d="M 150.5,235.5 C 151.043,235.56 151.376,235.893 151.5,236.5C 149.005,238.659 147.339,241.326 146.5,244.5C 145.449,241.854 144.949,239.187 145,236.5C 147.265,239.132 149.099,238.799 150.5,235.5 Z"/></g>
<g><path style="opacity:1" fill="#181209" d="M 135.5,234.5 C 136.496,234.414 137.329,234.748 138,235.5C 138.821,238.554 138.655,241.554 137.5,244.5C 136.571,243.311 136.238,241.978 136.5,240.5C 134.516,240.383 132.85,241.05 131.5,242.5C 131.167,242.167 130.833,241.833 130.5,241.5C 131.931,238.961 133.597,236.628 135.5,234.5 Z"/></g>
<g><path style="opacity:1" fill="#655026" d="M 161.5,238.5 C 161.167,239.5 160.5,240.167 159.5,240.5C 157.089,237.854 157.755,237.188 161.5,238.5 Z"/></g>
<g><path style="opacity:1" fill="#5b4922" d="M 237.5,238.5 C 238.812,240.479 240.479,242.145 242.5,243.5C 242.167,244.5 241.5,245.167 240.5,245.5C 239.205,242.876 237.538,240.543 235.5,238.5C 236.396,237.494 237.062,237.494 237.5,238.5 Z"/></g>
<g><path style="opacity:1" fill="#24190a" d="M 66.5,234.5 C 70.0562,234.275 70.3895,235.108 67.5,237C 69.2783,240.877 68.2783,243.877 64.5,246C 58,247.5 55.5,245 57,238.5C 57.8333,237.667 58.6667,236.833 59.5,236C 62.0356,235.814 64.369,235.314 66.5,234.5 Z"/></g>
<g><path style="opacity:1" fill="#b37e17" d="M 61.5,236.5 C 67.3279,237.297 67.9945,239.797 63.5,244C 61.8659,244.494 60.1992,244.66 58.5,244.5C 58.0156,241.212 59.0156,238.545 61.5,236.5 Z"/></g>
<g><path style="opacity:1" fill="#1d1407" d="M 76.5,252.5 C 76.2882,254.384 75.2882,255.717 73.5,256.5C 73.1119,252.411 72.1119,248.744 70.5,245.5C 70.7178,241.819 71.8844,241.152 74,243.5C 73.9296,246.992 74.7629,249.992 76.5,252.5 Z"/></g>
<g><path style="opacity:1" fill="#1d170d" d="M 228.5,248.5 C 228.294,246.451 227.461,246.117 226,247.5C 224.599,245.854 224.432,244.187 225.5,242.5C 228.663,244.916 231.996,247.082 235.5,249C 234.975,249.692 234.308,250.192 233.5,250.5C 232.15,249.05 230.484,248.383 228.5,248.5 Z"/></g>
<g><path style="opacity:1" fill="#2d1f0b" d="M 70.5,245.5 C 69.1554,247.697 67.9888,250.03 67,252.5C 66.3076,251.975 65.8076,251.308 65.5,250.5C 66.8545,248.479 68.5212,246.812 70.5,245.5 Z"/></g>
<g><path style="opacity:1" fill="#3f2a0e" d="M 76.5,252.5 C 77.451,250.528 78.451,248.528 79.5,246.5C 80.3081,246.808 80.9747,247.308 81.5,248C 79.9379,249.634 78.2713,251.134 76.5,252.5 Z"/></g>
<g><path style="opacity:1" fill="#211609" d="M 85.5,250.5 C 93.5212,251.846 95.5212,256.012 91.5,263C 89.8333,263.667 88.1667,263.667 86.5,263C 90.7287,261.713 92.2287,258.88 91,254.5C 90.4387,253.978 89.772,253.645 89,253.5C 87.4352,254.952 86.1018,256.619 85,258.5C 85.8308,263.323 84.3308,263.823 80.5,260C 83.857,257.788 85.5237,254.622 85.5,250.5 Z"/></g>
<g><path style="opacity:1" fill="#211a0f" d="M 217.5,247.5 C 220.259,250.131 222.926,252.965 225.5,256C 224.646,257.022 223.646,257.855 222.5,258.5C 221.253,254.496 218.92,251.33 215.5,249C 216.416,248.722 217.082,248.222 217.5,247.5 Z"/></g>
<g><path style="opacity:1" fill="#554522" d="M 228.5,248.5 C 227.119,250.274 227.452,251.774 229.5,253C 227.167,256.667 226.167,256.333 226.5,252C 226.608,250.319 227.275,249.152 228.5,248.5 Z"/></g>
<g><path style="opacity:1" fill="#23180a" d="M 98.5,268.5 C 96.5165,268.617 94.8498,267.95 93.5,266.5C 94.9286,264.045 96.2619,261.545 97.5,259C 97.3552,258.228 97.0219,257.561 96.5,257C 98.1686,256.878 99.8353,257.212 101.5,258C 97.2553,260.658 97.5886,262.492 102.5,263.5C 102.192,264.308 101.692,264.975 101,265.5C 100.29,264.027 99.1238,263.36 97.5,263.5C 97.366,265.292 97.6993,266.958 98.5,268.5 Z"/></g>
<g><path style="opacity:1" fill="#322816" d="M 211.5,250.5 C 213.103,250.312 214.437,250.812 215.5,252C 207.855,253.821 207.522,256.988 214.5,261.5C 216.356,260.724 217.689,259.391 218.5,257.5C 219.731,258.651 219.731,259.817 218.5,261C 212.945,263.867 209.279,262.367 207.5,256.5C 207.866,253.744 209.2,251.744 211.5,250.5 Z"/></g>
<g><path style="opacity:1" fill="#1e1407" d="M 102.5,259.5 C 104.496,258.312 105.329,258.979 105,261.5C 104.292,260.619 103.458,259.953 102.5,259.5 Z"/></g>
<g><path style="opacity:1" fill="#191006" d="M 115.5,262.5 C 113.279,265.796 112.113,269.463 112,273.5C 110.933,272.809 109.766,272.309 108.5,272C 110.054,269.325 111.387,266.492 112.5,263.5C 112.291,262.914 111.957,262.414 111.5,262C 112.819,261.805 114.153,261.972 115.5,262.5 Z"/></g>
<g><path style="opacity:1" fill="#2c2414" d="M 187.5,260.5 C 192.696,260.565 192.696,261.232 187.5,262.5C 186.518,266.595 187.684,267.261 191,264.5C 193.029,267.126 192.195,268.126 188.5,267.5C 188.5,268.5 188.5,269.5 188.5,270.5C 190.821,270.771 192.821,270.104 194.5,268.5C 194.833,268.833 195.167,269.167 195.5,269.5C 193.151,271.748 190.318,273.081 187,273.5C 186.686,269.871 185.519,266.538 183.5,263.5C 184.901,262.479 186.235,261.479 187.5,260.5 Z"/></g>
<g><path style="opacity:1" fill="#282012" d="M 197.5,265.5 C 196.31,263.645 194.977,261.812 193.5,260C 197.434,259.474 201.1,260.307 204.5,262.5C 204.833,262.333 205.167,262.167 205.5,262C 203.681,259.944 203.015,257.777 203.5,255.5C 205.401,258.631 206.735,261.965 207.5,265.5C 204.427,264.801 201.427,263.801 198.5,262.5C 197.614,263.325 197.281,264.325 197.5,265.5 Z"/></g>
<g><path style="opacity:1" fill="#1d160c" d="M 168.5,265.5 C 168.109,269.383 168.776,273.05 170.5,276.5C 170.376,277.107 170.043,277.44 169.5,277.5C 168.5,277.5 167.5,277.5 166.5,277.5C 166.759,273.76 166.426,270.094 165.5,266.5C 166.325,265.614 167.325,265.281 168.5,265.5 Z"/></g>
<g><path style="opacity:1" fill="#e1ad31" d="M 120.5,252.5 C 136.381,255.646 152.381,256.313 168.5,254.5C 168.629,258.477 168.629,262.143 168.5,265.5C 167.325,265.281 166.325,265.614 165.5,266.5C 166.426,270.094 166.759,273.76 166.5,277.5C 167.5,277.5 168.5,277.5 169.5,277.5C 170.105,281.972 168.439,284.972 164.5,286.5C 147.357,288.086 130.357,287.086 113.5,283.5C 113.307,280.189 114.307,277.522 116.5,275.5C 117.675,275.719 118.675,275.386 119.5,274.5C 118.754,273.264 118.421,271.93 118.5,270.5C 119.167,270.5 119.5,270.167 119.5,269.5C 119.393,267.621 119.893,267.288 121,268.5C 122.667,271.167 124.333,273.833 126,276.5C 126.87,275.892 127.37,275.059 127.5,274C 125.266,271.431 123.433,268.598 122,265.5C 121.184,264.177 120.017,263.511 118.5,263.5C 117.791,262.596 116.791,262.263 115.5,262.5C 115.389,261.883 115.056,261.383 114.5,261C 116.121,258.834 116.955,256.334 117,253.5C 118.011,252.663 119.178,252.33 120.5,252.5 Z"/></g>
<g><path style="opacity:1" fill="#2d200d" d="M 127.5,265.5 C 128.376,265.369 129.043,265.702 129.5,266.5C 128.011,271.646 127.344,271.313 127.5,265.5 Z"/></g>
<g><path style="opacity:1" fill="#1b1106" d="M 98.5,268.5 C 100.109,268.094 101.443,268.094 102.5,268.5C 101.042,269.782 99.7082,269.782 98.5,268.5 Z"/></g>
<g><path style="opacity:1" fill="#5b4923" d="M 197.5,265.5 C 198.837,266.315 199.837,267.482 200.5,269C 199.975,269.692 199.308,270.192 198.5,270.5C 197.548,268.955 197.215,267.288 197.5,265.5 Z"/></g>
<g><path style="opacity:1" fill="#241b0e" d="M 130.5,265.5 C 137.476,266.175 144.476,266.675 151.5,267C 152.711,267.893 152.711,268.726 151.5,269.5C 149.878,267.561 148.044,267.228 146,268.5C 146.429,271.225 146.596,273.892 146.5,276.5C 148.854,277.392 150.854,277.392 152.5,276.5C 152.291,277.086 151.957,277.586 151.5,278C 148.446,278.821 145.446,278.655 142.5,277.5C 143.757,274.177 143.757,270.844 142.5,267.5C 141.808,268.025 141.308,268.692 141,269.5C 139.644,268.62 138.144,268.286 136.5,268.5C 136.223,271.448 136.556,274.281 137.5,277C 135.833,277.667 134.167,277.667 132.5,277C 134.227,274.096 134.893,270.93 134.5,267.5C 132.517,267.843 131.183,267.176 130.5,265.5 Z"/></g>
<g><path style="opacity:1" fill="#3a2b14" d="M 149.5,270.5 C 151.033,274.613 150.367,275.113 147.5,272C 148.416,271.722 149.082,271.222 149.5,270.5 Z"/></g>
<g><path style="opacity:1" fill="#282012" d="M 175.5,263.5 C 177.429,263.231 179.095,263.731 180.5,265C 175.127,264.407 173.294,266.907 175,272.5C 176.396,274.527 178.062,274.86 180,273.5C 180.507,272.004 180.007,270.837 178.5,270C 179.793,269.51 181.127,269.343 182.5,269.5C 182.496,274.989 179.829,276.822 174.5,275C 170.344,270.787 170.677,266.954 175.5,263.5 Z"/></g>
<g><path style="opacity:1" fill="#1c150a" d="M 118.5,263.5 C 120.017,263.511 121.184,264.177 122,265.5C 123.433,268.598 125.266,271.431 127.5,274C 127.37,275.059 126.87,275.892 126,276.5C 124.333,273.833 122.667,271.167 121,268.5C 119.893,267.288 119.393,267.621 119.5,269.5C 118.539,267.735 118.205,265.735 118.5,263.5 Z"/></g>
<g><path style="opacity:1" fill="#221a0d" d="M 154.5,266.5 C 155.978,266.238 157.311,266.571 158.5,267.5C 157.593,270.421 157.26,273.421 157.5,276.5C 160.044,276.896 162.211,276.229 164,274.5C 164.483,275.448 164.649,276.448 164.5,277.5C 161.159,278.005 157.826,278.172 154.5,278C 155.729,274.2 155.729,270.367 154.5,266.5 Z"/></g>
<g><path style="opacity:1" fill="#5c441a" d="M 118.5,270.5 C 118.421,271.93 118.754,273.264 119.5,274.5C 118.675,275.386 117.675,275.719 116.5,275.5C 115.955,273.601 116.622,271.934 118.5,270.5 Z"/></g>
</svg>
